<?xml version="1.0" encoding="UTF-8"?>
<svg width="14px" height="20px" viewBox="0 0 14 20" version="1.1" xmlns="http://www.w3.org/2000/svg" xmlns:xlink="http://www.w3.org/1999/xlink">
    <!-- Generator: Sketch 56.2 (81672) - https://sketch.com -->
    <title>nutcracker</title>
    <desc>Created with Sketch.</desc>
    <g id="Page-1" stroke="none" stroke-width="1" fill="none" fill-rule="evenodd">
        <g id="my_project_none" transform="translate(-1128.000000, -67.000000)" fill-rule="nonzero">
            <g id="nutcracker" transform="translate(1128.000000, 67.000000)">
                <g id="Group" transform="translate(0.000000, 11.328125)" fill="#FCD4B1">
                    <path d="M1.77637037,0.091953125 C1.69244444,0.0766015625 1.60625926,0.0683203125 1.51814815,0.0685498457 C0.694888889,0.0707421875 0.0291851852,0.779257813 0.031291289,1.65101563 C0.0334814815,2.5228125 0.702518519,3.22773438 1.52577778,3.22555195 C1.61122222,3.22527344 1.69492593,3.21703125 1.77640741,3.2021875 L1.77640741,0.091953125 L1.77637037,0.091953125 Z" id="Path"></path>
                    <path d="M12.4742593,0.0390179918 C12.402963,0.0391796875 12.333,0.0450390625 12.2644444,0.0554296875 L12.2644444,3.1796875 C12.3354444,3.19050781 12.408037,3.19621094 12.4818889,3.19602048 C13.3051481,3.19382812 13.9708148,2.4853125 13.9687087,1.6134375 C13.9665556,0.74171875 13.2975185,0.0367578125 12.4742593,0.0390179918 Z" id="Path"></path>
                </g>
                <path d="M8.61185185,1.70351563 C8.61185185,2.64421875 7.89018519,3.40703125 6.99985185,3.40703125 C6.10981481,3.40703125 5.38814815,2.64421875 5.38814815,1.70351563 C5.38814815,0.762578125 6.10981481,0 6.99985185,0 C7.89018519,0 8.61185185,0.762578125 8.61185185,1.70351563 Z" id="Path" fill="#FFFF55"></path>
                <path d="M6.6407037,1.70351563 C6.6407037,0.997382812 7.04718519,0.39171875 7.62618519,0.133398437 C7.43362963,0.0475 7.22203704,0 6.99985185,0 C6.10981481,0 5.38814815,0.762578125 5.38814815,1.70351563 C5.38814815,2.64421875 6.10981481,3.40703125 6.99985185,3.40703125 C7.22203704,3.40703125 7.43362963,3.35949219 7.62622222,3.27359375 C7.04718519,3.01523437 6.6407037,2.40945313 6.6407037,1.70351563 Z" id="Path" fill="#414042" opacity="0.1"></path>
                <path d="M12.4742963,9.58039063 L12.4742963,3.16 C12.4742963,2.52285156 11.9841111,2.00636719 11.3794444,2.00636719 L2.62051852,2.00636719 C2.01581481,2.00636719 1.52566667,2.52285156 1.52566667,3.16 L1.52566667,9.58039063 L12.4742963,9.58039063 Z" id="Path" fill="#ED5D51"></path>
                <path d="M11.3794815,2.00636719 L10.7304074,2.00636719 L7,4.27574219 L3.26959259,2.00636719 L2.62051852,2.00636719 C2.01581481,2.00636719 1.52566667,2.52285156 1.52566667,3.16 L1.52566667,3.9034375 L7,7.23363281 L12.4742963,3.9034375 L12.4742963,3.16 C12.4742963,2.52285156 11.9841111,2.00636719 11.3794815,2.00636719 Z" id="Path" fill="#00B494"></path>
                <path d="M3.86311111,2.00636719 L2.62051852,2.00636719 C2.01581481,2.00636719 1.52566667,2.52285156 1.52566667,3.16 L1.52566667,9.58039063 L2.76825926,9.58039063 L2.76825926,3.16 C2.7682963,2.52285156 3.25844444,2.00636719 3.86311111,2.00636719 Z" id="Path" fill="#414042" opacity="0.1"></path>
                <path d="M1.23977778,9.03671875 L1.23977778,14.1057031 C1.23977778,17.3610547 3.74359259,20 6.83222222,20 L7.1677037,20 C10.2563333,20 12.7602222,17.3610547 12.7602222,14.1057422 L12.7602222,9.03671875 L1.23977778,9.03671875 Z" id="Path" fill="#FFE2C5"></path>
                <path d="M2.48881481,14.1057422 L2.48881481,9.03671875 L1.23977778,9.03671875 L1.23977778,14.1057031 C1.23977778,17.3610547 3.74359259,20 6.83222222,20 L7.1677037,20 C7.32151852,20 7.47381481,19.9932031 7.62448148,19.9803516 C4.74951852,19.7353906 2.48881481,17.1989844 2.48881481,14.1057422 Z" id="Path" fill="#414042" opacity="0.1"></path>
                <g id="Group" transform="translate(3.777778, 12.460938)" fill="#636052">
                    <path d="M1.37359259,0.771289063 C1.37359259,1.16800781 1.06933333,1.48964844 0.693888889,1.48964844 L0.693888889,1.48964844 C0.318555556,1.48964844 0.0142962963,1.16800781 0.0142962963,0.771289063 L0.0142962963,0.771289063 C0.0142962963,0.3746875 0.318555556,0.05296875 0.693888889,0.05296875 L0.693888889,0.05296875 C1.06933333,0.05296875 1.37359259,0.3746875 1.37359259,0.771289063 L1.37359259,0.771289063 Z" id="Path"></path>
                    <path d="M6.31003704,0.736953125 C6.31003704,1.13363281 6.00577778,1.45527344 5.63040741,1.45527344 L5.63040741,1.45527344 C5.25514815,1.45527344 4.9507037,1.13363281 4.9507037,0.736953125 L4.9507037,0.736953125 C4.9507037,0.3403125 5.25511111,0.0186328125 5.63040741,0.0186328125 L5.63040741,0.0186328125 C6.00577778,0.01859375 6.31003704,0.340234375 6.31003704,0.736953125 L6.31003704,0.736953125 Z" id="Path"></path>
                </g>
                <path d="M13.4157037,10.0754688 C13.4157037,10.5510156 13.0498148,10.9366016 12.5984074,10.9366016 L1.40155556,10.9366016 C0.950148148,10.9366016 0.584259259,10.5510156 0.584259259,10.0754688 L0.584259259,9.60183594 C0.584259259,9.12625 0.950185185,8.74070313 1.40155556,8.74070313 L12.5984074,8.74070313 C13.0498148,8.74070313 13.4157037,9.12621094 13.4157037,9.60183594 L13.4157037,10.0754688 L13.4157037,10.0754688 Z" id="Path" fill="#D84F48"></path>
                <path d="M2.24925926,10.0754688 L2.24925926,9.60183594 C2.24925926,9.12625 2.61518519,8.74070313 3.06655556,8.74070313 L1.40155556,8.74070313 C0.950148148,8.74070313 0.584259259,9.12621094 0.584259259,9.60183594 L0.584259259,10.0754688 C0.584259259,10.5510156 0.950185185,10.9366016 1.40155556,10.9366016 L3.06655556,10.9366016 C2.61518519,10.9366016 2.24925926,10.5510156 2.24925926,10.0754688 Z" id="Path" fill="#414042" opacity="0.1"></path>
                <path d="M9.66496296,19.0211328 C9.66496296,19.5380859 9.26725926,19.9571484 8.77659259,19.9571484 L5.22337037,19.9571484 C4.73277778,19.9571484 4.335,19.5380859 4.335,19.0211328 L4.335,17.1491406 C4.335,16.6321875 4.7327037,16.213125 5.22337037,16.213125 L8.77659259,16.213125 C9.26718519,16.213125 9.66496296,16.6321875 9.66496296,17.1491406 L9.66496296,19.0211328 Z" id="Path" fill="#C68C89"></path>
                <g id="Group" transform="translate(4.333333, 16.210938)" fill="#FFFFFF">
                    <rect id="Rectangle" x="1.47703704" y="0.002109375" width="1.09288889" height="1.59753906"></rect>
                    <rect id="Rectangle" x="2.76340741" y="0.002109375" width="1.09288889" height="1.59753906"></rect>
                    <path d="M4.4432963,0.0021875 L4.04992593,0.0021875 L4.04992593,1.59980469 L5.33162963,1.59980469 L5.33162963,0.938164063 C5.33162963,0.42125 4.93388889,0.0021875 4.4432963,0.0021875 Z" id="Path"></path>
                    <path d="M1.28340741,0.0021875 L0.890037037,0.0021875 C0.399444444,0.0021875 0.00166666667,0.42125 0.00166666667,0.938203125 L0.00166666667,1.59984375 L1.28337037,1.59984375 L1.28337037,0.0022265625 L1.28340741,0.0022265625 L1.28340741,0.0021875 Z" id="Path"></path>
                </g>
                <g id="Group" transform="translate(2.074074, 13.867188)" fill="#FFC197">
                    <ellipse id="Oval" cx="0.870962963" cy="0.913203125" rx="1" ry="1"></ellipse>
                    <ellipse id="Oval" cx="8.98088889" cy="0.913203125" rx="1" ry="1"></ellipse>
                </g>
                <path d="M7.7952963,14.8033594 C7.4552963,14.8033594 7.15911111,14.9983203 7,15.2875391 C6.84088889,14.9983594 6.5447037,14.8033594 6.2047037,14.8033594 C5.69696296,14.8033594 2.55677778,15.2370703 2.55677778,15.7721094 C2.55677778,16.3070703 5.69696296,16.7408594 6.2047037,16.7408594 C6.5447037,16.7408594 6.84088889,16.5457813 7,16.2566406 C7.15911111,16.5457813 7.4552963,16.7408594 7.7952963,16.7408594 C8.30303704,16.7408594 11.4432222,16.3071094 11.4432222,15.7721094 C11.4432222,15.2370703 8.30303704,14.8033594 7.7952963,14.8033594 Z" id="Path" fill="#826F62"></path>
                <path d="M8.06396296,14.2550781 L8.06396296,14.4544531 C8.06396296,15.07375 7.58755556,15.5759375 7,15.5759375 L7,15.5759375 C6.41237037,15.5759375 5.93603704,15.0737891 5.93603704,14.4544531 L5.93603704,14.2550781" id="Path" fill="#FFE2C5"></path>
                <path d="M7,15.1575781 C6.48351852,15.1575781 6.05307407,14.7695312 5.95644444,14.2550391 L5.936,14.2550391 L5.936,14.4544141 C5.936,15.0737109 6.41240741,15.5758984 6.99996296,15.5758984 C7.58751852,15.5758984 8.06392593,15.07375 8.06392593,14.4544141 L8.06392593,14.2550391 L8.04348148,14.2550391 C7.94692593,14.7695313 7.51648148,15.1575781 7,15.1575781 Z" id="Path" fill="#414042" opacity="0.1"></path>
            </g>
        </g>
    </g>
</svg>