<?xml version="1.0" encoding="UTF-8"?>
<svg width="19px" height="19px" viewBox="0 0 19 19" version="1.1" xmlns="http://www.w3.org/2000/svg" xmlns:xlink="http://www.w3.org/1999/xlink">
    <!-- Generator: Sketch 56.2 (81672) - https://sketch.com -->
    <title>snowman</title>
    <desc>Created with Sketch.</desc>
    <g id="Page-1" stroke="none" stroke-width="1" fill="none" fill-rule="evenodd">
        <g id="my_project_none" transform="translate(-1052.000000, -68.000000)" fill-rule="nonzero">
            <g id="snowman" transform="translate(1052.000000, 68.000000)">
                <path d="M1.88721844,6.67933492 C1.20150232,7.87870482 0.809675194,9.26443573 0.809675194,10.740937 C0.809675194,15.302258 4.54524052,19 9.15336927,19 C13.7614234,19 17.497026,15.302258 17.497026,10.740937 C17.497026,9.26447281 17.1051989,7.8787419 16.4194828,6.67933492 L1.88721844,6.67933492 Z" id="Path" fill="#F1F2F2"></path>
                <path d="M2.0775339,10.740937 C2.0775339,9.26447281 2.46936933,7.8787419 3.1551653,6.67933492 L1.8873439,6.67933492 C1.20154794,7.87870482 0.809675194,9.26443573 0.809675194,10.740937 C0.809675194,15.302258 4.54567547,19 9.15434075,19 C9.36762819,19 9.57897529,18.9919909 9.78819548,18.9764546 C5.47572957,18.655755 2.0775339,15.0911279 2.0775339,10.740937 Z" id="Path" fill="#414042" opacity="0.1"></path>
                <g id="Group" transform="translate(5.344281, 10.380048)" fill="#636052">
                    <path d="M1.64932697,0.795222891 C1.64932697,1.2262625 1.28354429,1.57589902 0.832169591,1.57589902 L0.832169591,1.57589902 C0.380944265,1.57589902 0.0151242454,1.2262625 0.0151242454,0.795222891 L0.0151242454,0.795222891 C0.0151242454,0.364183285 0.380906921,0.0145834944 0.832169591,0.0145834944 L0.832169591,0.0145834944 C1.28354429,0.0145834944 1.64932697,0.364183285 1.64932697,0.795222891 L1.64932697,0.795222891 Z" id="Path"></path>
                    <path d="M7.58393149,0.795222891 C7.58393149,1.2262625 7.21837288,1.57589902 6.76707286,1.57589902 L6.76707286,1.57589902 C6.31577285,1.57589902 5.94995283,1.2262625 5.94995283,0.795222891 L5.94995283,0.795222891 C5.94995283,0.364183285 6.31577285,0.0145834944 6.76707286,0.0145834944 L6.76707286,0.0145834944 C7.21837288,0.0145834944 7.58393149,0.364183285 7.58393149,0.795222891 L7.58393149,0.795222891 Z" id="Path"></path>
                </g>
                <path d="M10.4683864,12.9525309 C10.4683864,13.6005628 9.92021902,14.1258907 9.24422917,14.1258907 L9.24422917,14.1258907 C8.56790374,14.1258907 8.01969906,13.600526 8.01969906,12.9525309 L8.01969906,12.9525309 C8.01969906,12.3043885 8.56786645,11.7790974 9.24422917,11.7790974 L9.24422917,11.7790974 C9.92021902,11.7790974 10.4683864,12.3043517 10.4683864,12.9525309 L10.4683864,12.9525309 Z" id="Path" fill="#EF6B3A"></path>
                <path d="M15.4111072,5.86698337 L15.4111072,3.96279714 C15.4111072,1.77418948 13.6290718,0 11.4309289,0 L6.83046354,0 C4.63228338,0 2.85024799,1.77418948 2.85024799,3.96279714 L2.85024799,5.86698337 L15.4111072,5.86698337 Z" id="Path" fill="#E0594D"></path>
                <path d="M17.1796036,4.78386659 C17.1796036,5.18268978 16.8547237,5.50593824 16.4540609,5.50593824 L1.8526403,5.50593824 C1.45194025,5.50593824 1.12709763,5.18268978 1.12709763,4.78386659 L1.12709763,4.78386659 C1.12709763,4.38511782 1.45197749,4.06175772 1.8526403,4.06175772 L16.4541354,4.06175772 C16.854761,4.06175772 17.1796036,4.38508061 17.1796036,4.78386659 L17.1796036,4.78386659 Z" id="Path" fill="#F1F2F2"></path>
                <path d="M18.222563,6.74703088 C18.222563,7.53218856 17.5815747,8.16864608 16.7907489,8.16864608 L1.47056896,8.16864608 C0.679855055,8.16864608 0.038792139,7.53218856 0.038792139,6.74703088 L0.038792139,6.74703088 C0.038792139,5.9618732 0.679817745,5.32541568 1.47056896,5.32541568 L16.7907862,5.32541568 C17.5815747,5.32537848 18.222563,5.9618732 18.222563,6.74703088 L18.222563,6.74703088 Z" id="Path" fill="#E0594D"></path>
                <path d="M2.14546757,6.75003556 C2.14546757,6.00175952 2.72977723,5.38925024 3.47033019,5.33565614 C3.30268173,5.20371223 3.19477993,5.00028477 3.19477993,4.77154486 C3.19477993,4.37382024 3.51993892,4.05129067 3.92094598,4.05129067 L4.94424265,4.05129067 L4.94424265,3.94974396 C4.94435446,1.76834542 6.72724996,0 8.9266203,0 L6.81983305,0 C4.62049998,0 2.83752994,1.76834542 2.83752994,3.94974396 L2.83752994,4.05129067 L1.81427055,4.05129067 C1.41322622,4.05129067 1.0881045,4.37374601 1.0881045,4.77154486 C1.0881045,5.00028477 1.1960063,5.20374934 1.36365476,5.33565614 C0.623027258,5.38921313 0.038792139,6.0017224 0.038792139,6.75003556 C0.038792139,7.53353376 0.679158555,8.16864608 1.46909662,8.16864608 L3.57592114,8.16864608 C2.7859458,8.16864608 2.14546757,7.53349664 2.14546757,6.75003556 Z" id="Path" fill="#414042" opacity="0.1"></path>
                <path d="M11.640503,8.85613731 C11.1219797,8.66397523 10.5963529,8.63943128 10.1699517,8.75306755 C10.276094,8.34783284 10.2453991,7.8539878 10.0525558,7.36770614 C9.99150252,7.21373178 9.91695242,7.07136204 9.83354154,6.93903975 L9.83944872,6.92713853 C10.1185817,6.69226553 10.3605143,6.36273889 10.5178023,5.96529003 C10.6126537,5.72667241 10.6675007,5.48646054 10.6872412,5.25540632 C10.9259586,5.23642368 11.1746957,5.18333163 11.4216382,5.09175526 C11.8393282,4.93715062 12.1846739,4.69805102 12.4284012,4.42280285 C12.7870941,4.71933233 13.3293209,4.90849129 13.9364892,4.90849129 C13.9923457,4.90834299 14.0470432,4.90574771 14.1018529,4.90270752 C14.0985628,4.95542882 14.0959457,5.00844672 14.0957961,5.06261396 C14.0959457,5.64703433 14.2900601,6.16942748 14.5948781,6.5163425 C14.3369437,6.74780456 14.1145645,7.0619078 13.9665485,7.4355913 C13.8716598,7.67402354 13.8168501,7.91445786 13.7971471,8.14551209 C13.5585045,8.16442057 13.3096178,8.21751262 13.0628622,8.30912607 C12.6206836,8.47281419 12.2578407,8.73045152 12.0129544,9.02612827 C11.8963437,8.96228433 11.7722182,8.90481738 11.640503,8.85613731 Z" id="Path" fill="#00B494"></path>
                <path d="M11.582817,8.80047506 C11.5283176,8.75766862 11.4759458,8.71170098 11.4260004,8.66208866 C10.5094762,7.75121533 10.7502444,6.03516449 11.963604,4.82922057 C11.9790953,4.81389802 11.9945866,4.79883581 12.0101525,4.78384798 C11.8468408,4.8915521 11.6640809,4.9853841 11.464486,5.05961663 C11.2179319,5.15147753 10.9695861,5.20473453 10.7312443,5.22377615 C10.7115349,5.45554826 10.6567741,5.69650646 10.562072,5.93586547 C10.4050314,6.3345492 10.163442,6.66509967 9.88478549,6.90070242 L9.8788876,6.91264062 C9.96220459,7.04533685 10.0366374,7.18818613 10.0975574,7.34263888 C10.2900599,7.83043141 10.3207439,8.32581083 10.2147685,8.7323046 C10.6130999,8.62560464 11.0980704,8.64033213 11.582817,8.80047506 Z" id="Path" fill="#414042" opacity="0.1"></path>
                <path d="M12.0376179,7.3111639 C11.9607652,7.3111639 11.8839125,7.28182723 11.8254022,7.2231539 C11.7086409,7.1061402 11.7090115,6.91676519 11.8262545,6.80023242 L13.947893,4.69050825 C14.065136,4.57393848 14.2548221,4.57430843 14.3715092,4.69135913 C14.4882705,4.80837283 14.4878999,4.99774784 14.370694,5.11428061 L12.2490555,7.22396778 C12.1905452,7.28208619 12.1141001,7.3111639 12.0376179,7.3111639 Z" id="Path" fill="#00997C"></path>
                <path d="M18.8209449,7.38021297 C18.6259632,7.8914151 18.6010472,8.40953687 18.7162977,8.82993262 C18.3051276,8.72524997 17.8041099,8.75559277 17.3107357,8.94556828 C17.1544206,9.00577283 17.0100202,9.07933561 16.8757736,9.16152019 L16.8637464,9.15574766 C16.6253771,8.8806643 16.2909782,8.6420293 15.8878261,8.486948 C15.6457101,8.39355139 15.4019829,8.3394154 15.1675477,8.32009962 C15.1483268,8.08460991 15.0944108,7.83946231 15.0016034,7.59609087 C14.8446513,7.1842059 14.6020857,6.84377452 14.3228017,6.60362238 C14.6237045,6.25005478 14.8156139,5.7155035 14.8156139,5.11697333 C14.815464,5.06187525 14.8128413,5.00799828 14.809694,4.9539733 C14.8632353,4.9571926 14.9170014,4.95978283 14.971929,4.95993085 C15.5649298,4.95981984 16.0949849,4.76843819 16.4470685,4.46793349 C16.6818034,4.72218393 17.0006158,4.94146615 17.3796387,5.0873706 C17.6216799,5.18084121 17.8655569,5.2349032 18.1000296,5.25436699 C18.1191755,5.48963468 18.173054,5.7349673 18.2658989,5.97815372 C18.4319556,6.4140539 18.693405,6.77180288 18.9934461,7.01313913 C18.9285895,7.12799772 18.8703273,7.250368 18.8209449,7.38021297 Z" id="Path" fill="#00B494"></path>
                <path d="M18.7667158,7.5108428 C18.7236911,7.56503972 18.6774655,7.61722245 18.6276298,7.66683147 C17.7124243,8.57904072 15.9882352,8.33946271 14.7765463,7.13180001 C14.7611378,7.1164324 14.7460642,7.1010275 14.7309162,7.08551069 C14.8391479,7.24802687 14.9334599,7.43001366 15.008046,7.62867356 C15.1002365,7.87399578 15.153794,8.1210711 15.1728872,8.35848571 C15.405764,8.37791902 15.6479083,8.43252625 15.8883777,8.5266715 C16.2888499,8.68299587 16.6210259,8.92350639 16.8578107,9.20083203 L16.8697579,9.20665083 C17.0031493,9.12384479 17.1465526,9.04965505 17.3018287,8.98896792 C17.7919605,8.79743233 18.2896105,8.76688362 18.6980474,8.87240537 C18.5910067,8.47598077 18.6057825,7.99324393 18.7667158,7.5108428 Z" id="Path" fill="#414042" opacity="0.1"></path>
                <path d="M17.0132538,7.40142518 C16.9360087,7.40142518 16.8588759,7.37207081 16.7998479,7.31343678 L14.593182,5.11914206 C14.4748643,5.00146318 14.4744528,4.8103237 14.5923591,4.69219666 C14.7101906,4.57399493 14.9016387,4.57369615 15.0199939,4.69133769 L17.2266597,6.88563241 C17.3449775,7.00331129 17.3453516,7.19445077 17.2274827,7.31257781 C17.1684547,7.37177204 17.0908356,7.40142518 17.0132538,7.40142518 Z" id="Path" fill="#00997C"></path>
                <path d="M16.0912981,4.10835583 C16.0909628,3.61411771 15.8972471,3.14934143 15.5458073,2.79955176 C15.1942931,2.4498364 14.727256,2.25690409 14.2306223,2.25653207 C13.2054532,2.25578952 12.3720665,3.08525357 12.372921,4.10549509 C12.3732563,4.59973321 12.5669721,5.0645095 12.9184119,5.41429916 C13.2698516,5.76401452 13.7368888,5.95690968 14.2335225,5.95724466 C15.2587659,5.9580614 16.0921526,5.12863451 16.0912981,4.10835583 Z" id="Path" fill="#D84F48"></path>
                <path d="M13.7282438,5.40872636 C13.3792576,5.05901099 13.1867797,4.5941604 13.1864104,4.09988512 C13.1857087,3.22420349 13.7956775,2.48962661 14.6123052,2.29940641 C14.4841959,2.27150498 14.3523567,2.25668117 14.2180431,2.25653207 C13.1998159,2.25578952 12.3720723,3.08525358 12.372921,4.10549513 C12.373254,4.59973325 12.5656581,5.06450954 12.9147181,5.41429921 C13.2637782,5.76401458 13.7276529,5.95690974 14.2209237,5.95724466 C14.3652082,5.95735557 14.5054305,5.94026548 14.6402241,5.90887171 C14.2974052,5.83430688 13.9823944,5.66336878 13.7282438,5.40872636 Z" id="Path" fill="#414042" opacity="0.1"></path>
                <path d="M15.7394269,3.7362204 C15.6880139,3.65519935 15.6195999,3.61056433 15.5468238,3.61045131 C15.4741222,3.61041366 15.4058947,3.65497335 15.3544071,3.7358814 C15.2484492,3.90300849 15.2486357,4.17496197 15.3548917,4.34223973 C15.4063793,4.42318544 15.4747561,4.46785813 15.5474576,4.46793349 C15.6202337,4.46797113 15.6885731,4.42344911 15.7399116,4.3425034 C15.8458694,4.17537631 15.8456084,3.90346049 15.7394269,3.7362204 Z" id="Path" fill="#FFFFFF"></path>
            </g>
        </g>
    </g>
</svg>