<?xml version="1.0" encoding="UTF-8"?>
<svg width="15px" height="19px" viewBox="0 0 15 19" version="1.1" xmlns="http://www.w3.org/2000/svg" xmlns:xlink="http://www.w3.org/1999/xlink">
    <!-- Generator: Sketch 56.2 (81672) - https://sketch.com -->
    <title>bear</title>
    <desc>Created with Sketch.</desc>
    <g id="Page-1" stroke="none" stroke-width="1" fill="none" fill-rule="evenodd">
        <g id="my_project_none" transform="translate(-1237.000000, -68.000000)" fill-rule="nonzero">
            <g id="bear" transform="translate(1237.000000, 68.000000)">
                <g id="Group" transform="translate(0.008414, 5.213152)" fill="#A67C52">
                    <ellipse id="Oval" cx="13.1363549" cy="2.03456644" rx="1.82333498" ry="2.00231596"></ellipse>
                    <ellipse id="Oval" cx="1.82461541" cy="2.03456644" rx="1.82333498" ry="2.00231596"></ellipse>
                </g>
                <path d="M1.15014547,7.21657188 C1.15014547,6.32991766 1.67309734,5.57831919 2.39744819,5.31445304 C2.21788928,5.24902553 2.02606634,5.21315193 1.82658258,5.21315193 C0.822443744,5.21315193 0.00841424608,6.11010354 0.00841424608,7.21657188 C0.00841424608,8.32304021 0.822443744,9.21995465 1.82658258,9.21995465 C2.02606634,9.21995465 2.21788928,9.1840067 2.39744819,9.11869071 C1.67306374,8.85482456 1.15014547,8.10318892 1.15014547,7.21657188 Z" id="Path" fill="#414042" opacity="0.1"></path>
                <ellipse id="Oval" fill="#C69C6D" cx="7.488832" cy="11.654195" rx="6.69712794" ry="7.34580499"></ellipse>
                <path d="M1.88492938,11.6542136 C1.88492938,7.79904193 4.59317653,4.6379141 8.03713487,4.33283499 C7.85682574,4.31689747 7.67459341,4.30839002 7.49053909,4.30839002 C3.79086165,4.30839002 0.791704063,7.59724093 0.791704063,11.6541764 C0.791704063,15.7111119 3.79086165,19 7.49053909,19 C7.67459341,19 7.85685948,18.9914926 8.03713487,18.975555 C4.59317653,18.6704759 1.88492938,15.5093852 1.88492938,11.6542136 Z" id="Path" fill="#414042" opacity="0.1"></path>
                <ellipse id="Oval" fill="#A67C52" cx="7.488832" cy="15.3594104" rx="3.32898172" ry="3.64058957"></ellipse>
                <path d="M10.9353072,5.21315193 C10.9353072,2.33403327 8.23402679,0 7.488832,0 C6.83673583,0 4.0423568,2.33403327 4.0423568,5.21315193 L10.9353072,5.21315193 Z" id="Path" fill="#D84F48"></path>
                <g id="Group" transform="translate(3.376560, 9.995465)" fill="#636052">
                    <ellipse id="Oval" cx="0.745972799" cy="0.811747681" rx="1" ry="1"></ellipse>
                    <ellipse id="Oval" cx="7.47870511" cy="0.811747681" rx="1" ry="1"></ellipse>
                </g>
                <path d="M7.488832,17.8367347 C7.33739242,17.8367347 7.21468056,17.7019057 7.21468056,17.5356415 L7.21468056,13.7863167 C7.21468056,13.6200152 7.33739242,13.4852608 7.488832,13.4852608 C7.64027159,13.4852608 7.76298344,13.6200152 7.76298344,13.7863167 L7.76298344,17.5356043 C7.76298344,17.7019057 7.64027159,17.8367347 7.488832,17.8367347 Z" id="Path" fill="#896749"></path>
                <ellipse id="Oval" fill="#D84F48" cx="7.50841425" cy="12.8390023" rx="1.27284595" ry="1.20634921"></ellipse>
                <g id="Group" transform="translate(4.394837, 0.000000)" fill="#FFFFFF">
                    <path d="M5.78600693,2.5244163 L5.56364508,2.67275994 L4.9146839,2.23996662 C4.79007876,2.15676583 4.63372212,2.15676583 4.50908317,2.23996662 L3.86032487,2.67275994 L3.21136369,2.23996662 C3.08669092,2.15672852 2.93030048,2.15680314 2.80572914,2.23996662 L2.15710611,2.67275994 L1.50834781,2.23996662 C1.3835736,2.15676583 1.2272846,2.15676583 1.10261182,2.23996662 L0.453921157,2.67275994 L0.395659376,2.63388316 C0.260267517,2.87736672 0.137792664,3.13327442 0.0331716817,3.39940501 L0.251070068,3.54468925 C0.375675213,3.62789003 0.532099474,3.62789003 0.656772247,3.54468925 L1.30549673,3.11189593 L1.95428883,3.54468925 C2.07899542,3.62789003 2.23531824,3.62781541 2.36002483,3.54468925 L3.00861405,3.11189593 L3.6575076,3.54468925 C3.78214656,3.62789003 3.93857082,3.62789003 4.06324359,3.54468925 L4.71200188,3.11189593 L5.36096306,3.54468925 C5.48563583,3.62789003 5.64192484,3.62789003 5.76659761,3.54468925 L6.15508839,3.2855729 C6.04752557,3.02048699 5.92288662,2.76599705 5.78600693,2.5244163 Z" id="Path"></path>
                    <path d="M3.00854642,1.06153756 L3.65743997,1.49425626 C3.78207893,1.57745704 3.93850319,1.57745704 4.06317596,1.49425626 L4.7075046,1.0773569 C4.0604032,0.401676976 3.41881351,0 3.1110033,0 C2.83078543,0 2.15507726,0.434509573 1.47551427,1.16010997 L1.95418739,1.49421895 C2.07889398,1.57741973 2.2352168,1.57734512 2.35992338,1.49421895 L3.00854642,1.06153756 Z" id="Path"></path>
                </g>
                <path d="M11.875255,5.23467547 C11.875255,5.74627657 11.4933646,6.16099773 11.0222967,6.16099773 L3.95536726,6.16099773 C3.48433314,6.16099773 3.10240902,5.74627657 3.10240902,5.23467547 L3.10240902,5.23467547 C3.10240902,4.723148 3.48429939,4.30839002 3.95536726,4.30839002 L11.0222967,4.30839002 C11.4933646,4.30835321 11.875255,4.723148 11.875255,5.23467547 L11.875255,5.23467547 Z" id="Path" fill="#F1F2F2"></path>
                <path d="M4.20390613,5.22808054 C4.20390613,4.71289079 4.58411048,4.29516335 5.05309863,4.29516335 L5.23953789,4.29516335 C5.62888274,2.35106995 7.14435699,0.779958068 8.03713487,0.220318969 C7.80233835,0.0769985697 7.60386859,0 7.46948312,0 C6.89238843,0 4.62699017,1.85341526 4.13800718,4.29512628 L3.95160153,4.29512628 C3.48264698,4.29512628 3.10240902,4.71285371 3.10240902,5.22804347 C3.10240902,5.74330737 3.48261338,6.16099773 3.95160153,6.16099773 L5.05306503,6.16099773 C4.58411048,6.16099773 4.20390613,5.74334444 4.20390613,5.22808054 Z" id="Path" fill="#414042" opacity="0.1"></path>
            </g>
        </g>
    </g>
</svg>