<?xml version="1.0" encoding="UTF-8"?>
<svg width="19px" height="19px" viewBox="0 0 19 19" version="1.1" xmlns="http://www.w3.org/2000/svg" xmlns:xlink="http://www.w3.org/1999/xlink">
    <!-- Generator: Sketch 56.2 (81672) - https://sketch.com -->
    <title>girl (1)</title>
    <desc>Created with Sketch.</desc>
    <g id="Page-1" stroke="none" stroke-width="1" fill="none" fill-rule="evenodd">
        <g id="my_project_none" transform="translate(-1161.000000, -68.000000)" fill-rule="nonzero">
            <g id="girl-(1)" transform="translate(1161.000000, 68.000000)">
                <path d="M17.4734187,8.66365688 L17.4734187,7.55912116 C16.8895464,3.56119537 13.8351286,0 9.34689285,0 C4.85877594,0 1.86139079,3.45484229 1.22040663,7.55912116 L1.22040663,8.66365688 L17.4734187,8.66365688 L17.4734187,8.66365688 Z" id="Path" fill="#FFFFFF"></path>
                <path d="M17.4734187,8.66365688 L17.4734187,7.55912116 C16.8895464,3.56119537 13.8351286,0 9.34689285,0 C4.85877594,0 1.86139079,3.45484229 1.22040663,7.55912116 L1.22040663,8.66365688 L17.4734187,8.66365688 L17.4734187,8.66365688 Z" id="Path" fill="#F47973"></path>
                <path d="M16.3964991,4.32667487 L16.0875934,4.03160271 L15.4589608,4.63207288 L16.0875934,5.23250564 L16.6035392,4.73970856 C16.5377176,4.60023487 16.4687043,4.46244473 16.3964991,4.32667487 Z" id="Path" fill="#ED5D51"></path>
                <path d="M14.3751295,1.85134266 L13.9621491,2.08931663 L12.6984253,1.36107633 C12.5263733,1.26184652 12.3090382,1.26192051 12.1369862,1.36107633 L10.8731831,2.08931663 L9.60945929,1.36111333 C9.43744694,1.26195751 9.22007217,1.26195751 9.04798051,1.36111333 L7.78433601,2.08935362 L6.52088978,1.36111333 C6.34883777,1.26195751 6.13142335,1.26195751 5.95937134,1.36111333 L4.69564754,2.08935362 L4.2697405,1.84390597 C4.00089685,2.07140938 3.74727973,2.31667204 3.50956325,2.57769603 L4.41482884,3.09941104 C4.5868412,3.19856685 4.80421597,3.19860385 4.97630763,3.09941104 L6.24003143,2.37117074 L7.50347766,3.09941104 C7.67552967,3.19856685 7.89290444,3.19860385 8.0649961,3.09941104 L9.32868025,2.37117074 L10.5923644,3.09941104 C10.6784102,3.14906294 10.775757,3.1738149 10.8730641,3.1738149 C10.9704506,3.1738149 11.0677974,3.14898895 11.1538035,3.09941104 L12.417567,2.37117074 L13.6812908,3.09941104 C13.8533031,3.19856685 14.0706779,3.19856685 14.2427696,3.09941104 L15.1384789,2.5832828 C14.8998901,2.32329476 14.6450041,2.07873507 14.3751295,1.85134266 Z" id="Path" fill="#FFFFFF"></path>
                <path d="M1.99871988,6.64785553 L1.99871988,12.3590976 C1.99871988,16.0267171 5.20275475,19 9.1551313,19 L9.58439783,19 C13.536814,19 16.7408886,16.0267171 16.7408886,12.3590976 L16.7408886,6.64785553 L1.99871988,6.64785553 Z" id="Path" fill="#FFE2C5"></path>
                <g id="Group" transform="translate(5.203539, 11.665914)" fill="#636052">
                    <path d="M1.75963632,0.889189494 C1.75963632,1.33838305 1.36955057,1.70256384 0.888338873,1.70256384 L0.888338873,1.70256384 C0.407087456,1.70256384 0.0170811481,1.33842028 0.0170811481,0.889189494 L0.0170811481,0.889189494 C0.0170811481,0.440107652 0.407127179,0.075889618 0.888338873,0.075889618 L0.888338873,0.075889618 C1.36955057,0.075889618 1.75963632,0.440107652 1.75963632,0.889189494 L1.75963632,0.889189494 Z" id="Path"></path>
                    <path d="M8.08800308,0.850239278 C8.08800308,1.29943283 7.69795705,1.66353915 7.21678508,1.66353915 L7.21678508,1.66353915 C6.73569256,1.66353915 6.34540819,1.29943283 6.34540819,0.85020204 L6.34540819,0.85020204 C6.34540819,0.401082961 6.73565283,0.0369766392 7.21678508,0.0369766392 L7.21678508,0.0369766392 C7.69795705,0.0370138765 8.08800308,0.401120199 8.08800308,0.850239278 L8.08800308,0.850239278 Z" id="Path"></path>
                    <path d="M4.12946687,4.77929578 C3.17439235,4.77929578 2.397359,4.05637083 2.397359,3.1677399 C2.397359,3.00147535 2.54115843,2.8667508 2.71848459,2.8667508 C2.89581074,2.8667508 3.03961017,3.00147535 3.03961017,3.1677399 C3.03961017,3.7244003 3.52852824,4.17724311 4.12946687,4.17724311 C4.73040549,4.17724311 5.21932356,3.72436306 5.21932356,3.1677399 C5.21932356,3.00147535 5.363123,2.8667508 5.54044915,2.8667508 C5.7177753,2.8667508 5.86157473,3.00147535 5.86157473,3.1677399 C5.86161446,4.05637083 5.08458111,4.77929578 4.12946687,4.77929578 Z" id="Path"></path>
                </g>
                <g id="Group" transform="translate(3.601130, 13.681716)" fill="#FFC197">
                    <ellipse id="Oval" cx="1.10045616" cy="1.02765431" rx="1.08523974" ry="1"></ellipse>
                    <ellipse id="Oval" cx="10.3876626" cy="1.02765431" rx="1.08523974" ry="1"></ellipse>
                </g>
                <path d="M3.32850827,12.3590976 L3.32850827,6.64785553 L1.99871988,6.64785553 L1.99871988,12.3590976 C1.99871988,16.0267171 5.19236998,19 9.13193627,19 L9.55981148,19 C9.71134238,19 9.86160855,18.9950719 10.0107681,18.9864015 C6.28134518,18.7697525 3.32850827,15.8856192 3.32850827,12.3590976 Z" id="Path" fill="#414042" opacity="0.1"></path>
                <path d="M1.33032736,8.49209932 C0.520294733,9.37761501 0.0300451807,10.5311899 0.0300451807,11.7931166 C0.0300451807,13.9935103 1.51968615,15.8650639 3.59851377,16.5584407 C2.5897356,15.411879 1.98427067,13.9462734 1.98427067,12.3490129 L1.98427067,10.179826 C3.14307835,10.5984645 4.49639366,10.8391018 5.94242785,10.8391018 C8.15041234,10.8391018 10.1425809,10.2784187 11.5550683,9.37887664 C12.7219161,10.3903327 14.4565235,11.0316859 16.3936785,11.0316859 C16.4996656,11.0316859 16.6049793,11.029645 16.709699,11.0258601 L16.709699,12.3490129 C16.709699,14.0051618 16.0588054,15.5197855 14.9823001,16.6839729 C17.2844689,16.1192823 18.984262,14.1436442 18.984262,11.7930795 C18.984262,10.5310786 18.4938145,9.37757791 17.6837026,8.49209932 L1.33032736,8.49209932 L1.33032736,8.49209932 Z" id="Path" fill="#C69C6D"></path>
                <g id="Group" transform="translate(0.396310, 4.031603)" fill="#ED5D51">
                    <path d="M1.3822344,5.07506366 C0.155566222,5.07506366 0.0261785318,4.58380081 0.0261785318,3.44656967 C0.0261785318,2.95138648 0.459213429,2.5498846 0.993437659,2.5498846 L16.9042424,2.5498846 C17.4385062,2.5498846 17.8715015,2.95134949 17.8715015,3.44656967 C17.8715015,4.58380081 17.7636586,5.07506366 16.5369508,5.07506366 L1.3822344,5.07506366 L1.3822344,5.07506366 Z" id="Path"></path>
                    <polygon id="Path" points="5.0100799 1.20779725 4.37050787 0.614235744 5.0100799 0.0206742402 5.64965192 0.614235744"></polygon>
                </g>
                <ellipse id="Oval" fill="#00B494" cx="8.06498494" cy="4.61060948" rx="1" ry="1"></ellipse>
                <polygon id="Path" fill="#ED5D51" points="10.7433379 5.23250564 10.1023343 4.63205418 10.7433379 4.03160271 11.384262 4.63205418"></polygon>
                <g id="Group" transform="translate(1.861370, 3.817156)" fill="#00B494">
                    <ellipse id="Oval" cx="11.5401499" cy="0.800230248" rx="1" ry="1"></ellipse>
                    <ellipse id="Oval" cx="0.85681231" cy="0.800230248" rx="1" ry="1"></ellipse>
                </g>
                <path d="M1.75389104,7.45989468 C1.75389104,6.9634459 2.18779307,6.56091786 2.72308705,6.56091786 L2.7568976,6.56091786 C3.64331334,3.11540241 6.24934464,0.329853487 10.0107681,0.0276979041 C9.78984868,0.00971465981 9.56531807,0 9.33677941,0 C5.20784484,0 2.33847223,2.91031927 1.39931681,6.56091786 L1.36550626,6.56091786 C0.830172586,6.56091786 0.396310241,6.96340882 0.396310241,7.45989468 C0.396310241,8.60003237 0.525957024,9.09255079 1.75508155,9.09255079 L3.11270203,9.09255079 C1.88353782,9.09255079 1.75389104,8.60003237 1.75389104,7.45989468 Z" id="Path" fill="#414042" opacity="0.1"></path>
            </g>
        </g>
    </g>
</svg>