<?xml version="1.0" encoding="UTF-8"?>
<svg width="17px" height="23px" viewBox="0 0 17 23" version="1.1" xmlns="http://www.w3.org/2000/svg" xmlns:xlink="http://www.w3.org/1999/xlink">
    <!-- Generator: Sketch 56.2 (81672) - https://sketch.com -->
    <title>santa-claus</title>
    <desc>Created with Sketch.</desc>
    <g id="Page-1" stroke="none" stroke-width="1" fill="none" fill-rule="evenodd">
        <g id="my_project_none" transform="translate(-1089.000000, -66.000000)" fill-rule="nonzero">
            <g id="santa-claus" transform="translate(1089.692308, 66.346154)">
                <g id="Group" transform="translate(0.000000, 11.914830)" fill="#FFE2C5">
                    <path d="M1.9848842,0.0953186385 C1.8913185,0.0786639676 1.79526279,0.0696191333 1.69705468,0.0698745509 C0.779334304,0.0722717049 0.0372659044,0.843517769 0.0396236842,1.79252961 C0.0420349272,2.74158495 0.787859459,3.50891738 1.70553763,3.50657458 C1.80079148,3.50630829 1.89401954,3.49735043 1.9848842,3.48117409 L1.9848842,0.0953186385 L1.9848842,0.0953186385 Z" id="Path"></path>
                    <path d="M13.9099736,0.0377388024 C13.830504,0.0379187284 13.7525536,0.0443544759 13.6760805,0.0556605188 L13.6760805,3.45673564 C13.7552969,3.46852002 13.836117,3.47473834 13.9184988,3.47452643 C14.8362191,3.47212925 15.5782453,2.70083971 15.5758875,1.75178438 C15.5735185,0.802729045 14.827694,0.0352661568 13.9099736,0.0377388024 Z" id="Path"></path>
                </g>
                <g id="Group" transform="translate(0.000000, 13.175888)" fill="#F1D6BC">
                    <path d="M0.102723909,0.0580956665 C0.0615330561,0.208639976 0.0391650728,0.36722897 0.0395401474,0.531470985 C0.0419505198,1.48052632 0.787775052,2.24785875 1.70545322,2.24551595 C1.80070707,2.24524966 1.89393514,2.2362918 1.98479979,2.22011546 L1.98479979,1.28219223 C1.89389293,1.29832509 1.80070707,1.30732644 1.70545322,1.30758734 C0.943591268,1.30954416 0.300659459,0.780769231 0.102723909,0.0580956665 Z" id="Path"></path>
                    <path d="M13.9184988,1.27545209 C13.836117,1.27566952 13.7552969,1.26945119 13.6760805,1.25766682 L13.6760805,2.19559004 C13.7552969,2.20737442 13.836117,2.21359274 13.9184988,2.21338083 C14.8362191,2.21098366 15.5782453,1.43973759 15.5758875,0.490638776 C15.5754599,0.329527665 15.5531763,0.173895637 15.5127029,0.026134353 C15.315738,0.745416104 14.6774064,1.27349528 13.9184988,1.27545209 Z" id="Path"></path>
                </g>
                <path d="M1.70123285,10.8918069 L1.70123285,16.15003 C1.70123285,19.5267971 4.3555106,22.2642945 7.62984574,22.2642945 L7.98545447,22.2642945 C11.2597896,22.2642945 13.9141518,19.5268406 13.9141518,16.15003 L13.9141518,10.8918069 L1.70123285,10.8918069 Z" id="Path" fill="#F1F2F2"></path>
                <g id="Group" opacity="0.05" transform="translate(1.688150, 14.654371)" fill="#414042">
                    <path d="M6.29734699,6.13935523 L5.94173825,6.13935523 C2.66740312,6.13935523 0.0131253638,3.40190133 0.0131253638,0.0250907182 L0.0131253638,1.49561553 C0.0131253638,4.87238267 2.66740312,7.60988004 5.94173825,7.60988004 L6.29734699,7.60988004 C9.57168212,7.60988004 12.2260443,4.87242615 12.2260443,1.49561553 L12.2260443,0.0250907182 C12.2260443,3.40190133 9.57168212,6.13935523 6.29734699,6.13935523 Z" id="Path"></path>
                </g>
                <path d="M2.85369044,10.8742825 C2.85208669,10.9133753 2.85077838,10.9525986 2.85077838,10.9920828 L2.85077838,12.9469846 C2.85077838,14.4748223 4.04383597,15.7133993 5.51573368,15.7133993 C6.49080894,15.7133993 7.34307131,15.1695786 7.80773451,14.3585005 C8.2722711,15.1695786 9.12461788,15.7133993 10.0996087,15.7133993 C11.5715064,15.7133993 12.7646062,14.4748223 12.7646062,12.9469846 L12.7646062,10.9920828 C12.7646062,10.9525986 12.7633401,10.9133753 12.7617786,10.8742825 L2.85369044,10.8742825 L2.85369044,10.8742825 Z" id="Path" fill="#FFE2C5"></path>
                <path d="M10.0996087,15.2334578 C9.12461788,15.2334578 8.2722711,14.6896371 7.80773451,13.878559 C7.34311351,14.6896371 6.49085114,15.2334578 5.51573368,15.2334578 C4.04379376,15.2334578 2.85077838,13.9948808 2.85077838,12.467043 L2.85077838,12.9469846 C2.85077838,14.4748223 4.04383597,15.7133993 5.51573368,15.7133993 C6.49080894,15.7133993 7.34307131,15.1695786 7.80773451,14.3585005 C8.2722711,15.1695786 9.12461788,15.7133993 10.0996087,15.7133993 C11.5715064,15.7133993 12.7646062,14.4748223 12.7646062,12.9469846 L12.7646062,12.467043 C12.7646062,13.9948808 11.5715064,15.2334578 10.0996087,15.2334578 Z" id="Path" fill="#F1D6BC"></path>
                <g id="Group" transform="translate(4.220374, 12.828010)" fill="#636052">
                    <path d="M1.46970312,0.758505023 C1.46970312,1.17004498 1.14713992,1.50361673 0.749116424,1.50361673 L0.749116424,1.50361673 C0.351219543,1.50361673 0.0286141372,1.16995801 0.0286141372,0.758505023 L0.0286141372,0.758505023 C0.0286141372,0.347008547 0.351135135,0.0134367971 0.749116424,0.0134367971 L0.749116424,0.0134367971 C1.14705551,0.0133933123 1.46970312,0.347052032 1.46970312,0.758505023 L1.46970312,0.758505023 Z" id="Path"></path>
                    <path d="M6.70284054,0.758505023 C6.70284054,1.17004498 6.38036175,1.50361673 5.98233825,1.50361673 L5.98233825,1.50361673 C5.58452578,1.50361673 5.26179376,1.16995801 5.26179376,0.758505023 L5.26179376,0.758505023 C5.26179376,0.347008547 5.58448358,0.0134367971 5.98233825,0.0134367971 L5.98233825,0.0134367971 C6.38036175,0.0133933123 6.70284054,0.347052032 6.70284054,0.758505023 L6.70284054,0.758505023 Z" id="Path"></path>
                </g>
                <g id="Group" transform="translate(1.434927, 2.304693)" fill="#ED5D51">
                    <path d="M7.61908378,12.9521592 C7.61908378,13.6638746 7.06110811,14.2408742 6.37284948,14.2408742 L6.37284948,14.2408742 C5.68454865,14.2408742 5.12653077,13.6638746 5.12653077,12.9521592 L5.12653077,12.9521592 C5.12653077,12.2403569 5.68450644,11.6633138 6.37284948,11.6633138 L6.37284948,11.6633138 C7.0610659,11.6633138 7.61908378,12.2403134 7.61908378,12.9521592 L7.61908378,12.9521592 Z" id="Path"></path>
                    <path d="M12.7445595,8.15948418 C12.7445595,3.65659169 7.75046403,0.00613135403 6.37280728,0.00613135403 C5.16729958,0.00613135403 0.00105509356,3.65659169 0.00105509356,8.15948418 L12.7445595,8.15948418 Z" id="Path"></path>
                </g>
                <g id="Group" opacity="0.1" transform="translate(1.434927, 2.304693)" fill="#414042">
                    <path d="M7.35699854,0.314047084 C6.95154719,0.113538761 6.60897942,0.00617483881 6.37280728,0.00617483881 C5.16729958,0.00617483881 0.00105509356,3.65663518 0.00105509356,8.15952767 L1.90866424,8.15952767 C1.90866424,4.428577 5.45517131,1.28301844 7.35699854,0.314047084 Z" id="Path"></path>
                </g>
                <path d="M14.9735079,9.82764732 C14.9735079,10.5987629 14.3690659,11.2238567 13.6234102,11.2238567 L1.99197443,11.2238567 C1.24636091,11.2238567 0.641876715,10.5987629 0.641876715,9.82764732 L0.641876715,9.82764732 C0.641876715,9.05653171 1.24631871,8.43148148 1.99197443,8.43148148 L13.6234102,8.43148148 C14.3690237,8.43148148 14.9735079,9.05653171 14.9735079,9.82764732 L14.9735079,9.82764732 Z" id="Path" fill="#F1F2F2"></path>
                <g id="Group" opacity="0.1" transform="translate(0.633056, 8.392563)" fill="#414042">
                    <path d="M1.89769127,1.43508472 C1.89769127,0.663969111 2.50209106,0.0389188784 3.24774678,0.0389188784 L1.3589183,0.0389188784 C0.613304782,0.0389188784 0.00882058212,0.664012596 0.00882058212,1.43508472 C0.00882058212,2.20615685 0.613262578,2.83129405 1.3589183,2.83129405 L3.24774678,2.83129405 C2.50213326,2.83129405 1.89769127,2.20620033 1.89769127,1.43508472 Z" id="Path"></path>
                </g>
                <path d="M9.55239501,1.76709102 C9.55239501,2.74293297 8.78728337,3.53422552 7.84343888,3.53422552 C6.89980541,3.53422552 6.13477817,2.74293297 6.13477817,1.76709102 C6.13482037,0.791075124 6.89984761,0 7.84343888,0 C8.78728337,0 9.55239501,0.791075124 9.55239501,1.76709102 Z" id="Path" fill="#F1F2F2"></path>
                <g id="Group" opacity="0.1" transform="translate(6.119543, 0.000000)" fill="#414042">
                    <path d="M0.96030395,1.76709102 C0.96030395,0.960709252 1.48282848,0.28108562 2.19649376,0.0690103464 C2.04633285,0.0243949618 1.8879,0 1.72389626,0 C0.780262786,0 0.0152355509,0.791075124 0.0152355509,1.76709102 C0.0152355509,2.74293297 0.78030499,3.53422552 1.72389626,3.53422552 C1.8879422,3.53422552 2.04629064,3.50983056 2.19649376,3.46525866 C1.48282848,3.2531399 0.96030395,2.57334233 0.96030395,1.76709102 Z" id="Path"></path>
                </g>
            </g>
        </g>
    </g>
</svg>