<?xml version="1.0" encoding="UTF-8"?>
<svg width="21px" height="21px" viewBox="0 0 21 21" version="1.1" xmlns="http://www.w3.org/2000/svg" xmlns:xlink="http://www.w3.org/1999/xlink">
    <!-- Generator: Sketch 56.2 (81672) - https://sketch.com -->
    <title>reindeer (1)</title>
    <desc>Created with Sketch.</desc>
    <g id="Page-1" stroke="none" stroke-width="1" fill="none" fill-rule="evenodd">
        <g id="my_project_none" transform="translate(-1076.000000, -14.000000)" fill-rule="nonzero">
            <g id="reindeer-(1)" transform="translate(1076.461538, 14.461538)">
                <g id="Group" transform="translate(2.784105, 0.000000)" fill="#00B494">
                    <path d="M4.68494216,3.8896182 L3.82724189,3.8896182 L3.82724189,2.6897364 C3.82724189,2.30480629 3.52789183,1.99271623 3.15862545,1.99271623 C2.78935907,1.99271623 2.49000901,2.30480629 2.49000901,2.6897364 L2.49000901,3.8896182 L1.95036328,3.8896182 C1.61764318,3.8896182 1.34703606,3.6026243 1.34703606,3.2498091 L1.34703606,0.709792683 C1.34703606,0.32486257 1.047686,0.0127317073 0.678419621,0.0127317073 C0.309153245,0.0127317073 0.00988161058,0.324821764 0.00988161058,0.709792683 L0.00988161058,3.24984991 C0.00988161058,4.37138274 0.880404447,5.28374015 1.95040249,5.28374015 L4.01632572,5.28374015 L4.01632572,8.59720779 C4.01632572,8.9821379 4.31567578,9.29426876 4.68498137,9.29426876 C5.05424775,9.29426876 5.35359781,8.98217871 5.35359781,8.59720779 L5.35359781,4.58667917 C5.35359781,4.20170826 5.05420853,3.8896182 4.68494216,3.8896182 Z" id="Path"></path>
                    <path d="M13.8225302,0.0127317073 C13.4532638,0.0127317073 13.1539138,0.324821764 13.1539138,0.709792683 L13.1539138,3.24984991 C13.1539138,3.6026243 12.8832674,3.88965901 12.5506258,3.88965901 L12.0109408,3.88965901 L12.0109408,2.6897364 C12.0109408,2.30480629 11.7115907,1.99271623 11.3423244,1.99271623 C10.973058,1.99271623 10.6737079,2.30480629 10.6737079,2.6897364 L10.6737079,3.8896182 L9.81604688,3.8896182 C9.4467805,3.8896182 9.14743044,4.20170826 9.14743044,4.58667917 L9.14743044,8.59720779 C9.14743044,8.9821379 9.4467805,9.29426876 9.81604688,9.29426876 C10.1853133,9.29426876 10.4846633,8.98217871 10.4846633,8.59720779 L10.4846633,5.28374015 L12.5506258,5.28374015 C13.6205846,5.28374015 14.4911074,4.37138274 14.4911074,3.24984991 L14.4911074,0.709792683 C14.4911074,0.324821764 14.1917574,0.0127317073 13.8225302,0.0127317073 Z" id="Path"></path>
                </g>
                <path d="M14.6240386,9.75036585 C14.4296218,9.75036585 14.2720258,9.5863227 14.2720258,9.38396201 L14.2720258,7.29192214 C14.2720258,7.08952064 14.4296218,6.92547749 14.6240386,6.92547749 L19.7249103,6.92547749 C19.9193271,6.92547749 20.0769231,7.08952064 20.0769231,7.29192214 C20.0769231,7.97070169 19.7395759,8.60112523 19.1270337,9.06701595 C18.5477046,9.50764728 17.7833307,9.75028424 16.9745287,9.75028424 L14.6239994,9.75028424 L14.6239994,9.75036585 L14.6240386,9.75036585 Z" id="Path" fill="#A67C52"></path>
                <path d="M3.10239438,9.75036585 C2.29367082,9.75036585 1.52921845,9.50768809 0.949889423,9.06709756 C0.337347206,8.60108443 0,7.97070169 0,7.29192214 C0,7.08952064 0.157635216,6.92547749 0.352051983,6.92547749 L5.45292368,6.92547749 C5.64734044,6.92547749 5.80493645,7.08952064 5.80493645,7.29192214 L5.80493645,9.38396201 C5.80493645,9.5863227 5.64734044,9.75036585 5.45292368,9.75036585 L3.10239438,9.75036585 Z" id="SVGCleanerId_0" fill="#A67C52"></path>
                <path d="M3.10239438,9.75036585 C2.29367082,9.75036585 1.52921845,9.50768809 0.949889423,9.06709756 C0.337347206,8.60108443 0,7.97070169 0,7.29192214 C0,7.08952064 0.157635216,6.92547749 0.352051983,6.92547749 L5.45292368,6.92547749 C5.64734044,6.92547749 5.80493645,7.08952064 5.80493645,7.29192214 L5.80493645,9.38396201 C5.80493645,9.5863227 5.64734044,9.75036585 5.45292368,9.75036585 L3.10239438,9.75036585 Z" id="SVGCleanerId_0_1_" fill="#A67C52"></path>
                <path d="M4.41947191,8.85086257 C3.61074835,8.85086257 2.84629597,8.6081848 2.26700616,8.16751266 C1.81872611,7.82649062 1.51855258,7.39716276 1.38942503,6.92547749 L0.352051983,6.92547749 C0.157635216,6.92547749 0,7.08952064 0,7.29192214 C0,7.97070169 0.337347206,8.60112523 0.949889423,9.06701595 C1.52921845,9.50764728 2.29363161,9.75028424 3.10239438,9.75028424 L5.45296289,9.75028424 C5.64737966,9.75028424 5.80497566,9.58624109 5.80497566,9.38388039 L5.80497566,8.85082176 L4.41947191,8.85086257 L4.41947191,8.85086257 Z" id="Path" fill="#414042" opacity="0.1"></path>
                <path d="M4.16098152,6.92551829 L4.16098152,13.8698077 C4.16098152,17.2908419 6.79948918,20.0641914 10.0543035,20.0641914 C13.3091178,20.0641914 15.9477039,17.2908827 15.9477039,13.8698077 L15.9477039,6.92551829 L4.16098152,6.92551829 Z" id="Path" fill="#C69C6D"></path>
                <path d="M5.47245162,13.8697669 L5.47245162,6.92551829 L4.16098152,6.92551829 L4.16098152,13.8698077 C4.16098152,17.2908419 6.79948918,20.0641914 10.0543035,20.0641914 C10.2762476,20.0641914 10.4953292,20.0510924 10.7109208,20.0259554 C7.76435787,19.6834644 5.47245162,17.0581618 5.47245162,13.8697669 Z" id="Path" fill="#414042" opacity="0.1"></path>
                <path d="M10.0384615,13.0625277 C8.53159435,13.0625277 7.31003906,14.3464714 7.31003906,15.9303447 L7.31003906,19.3613358 C8.12589934,19.8100469 9.05382963,20.0641914 10.0384615,20.0641914 C11.0230934,20.0641914 11.9510237,19.8100469 12.766884,19.3613358 L12.766884,15.9303447 C12.766884,14.3464714 11.5453287,13.0625277 10.0384615,13.0625277 Z" id="Path" fill="#A67C52"></path>
                <ellipse id="Oval" fill="#ED5D51" cx="10.0384615" cy="14.4332674" rx="1.3148424" ry="1.37082129"></ellipse>
                <g id="Group" transform="translate(6.548528, 11.140244)" fill="#636052">
                    <path d="M6.99919967,0.746681989 C6.99919967,1.15528002 6.68102749,1.48654925 6.28846875,1.48654925 L6.28846875,1.48654925 C5.89602764,1.48654925 5.57765941,1.15528002 5.57765941,0.746681989 L5.57765941,0.746681989 C5.57765941,0.338165572 5.89602764,0.00685553471 6.28846875,0.00685553471 L6.28846875,0.00685553471 C6.68106671,0.00685553471 6.99919967,0.338165572 6.99919967,0.746681989 L6.99919967,0.746681989 Z" id="Path"></path>
                    <path d="M1.43385306,0.746681989 C1.43385306,1.15528002 1.11564168,1.48654925 0.723122145,1.48654925 L0.723122145,1.48654925 C0.33068104,1.48654925 0.0123520132,1.15528002 0.0123520132,0.746681989 L0.0123520132,0.746681989 C0.0123520132,0.338165572 0.330720252,0.00685553471 0.723122145,0.00685553471 L0.723122145,0.00685553471 C1.11564168,0.00685553471 1.43385306,0.338165572 1.43385306,0.746681989 L1.43385306,0.746681989 Z" id="Path"></path>
                </g>
            </g>
        </g>
    </g>
</svg>