<?xml version="1.0" encoding="UTF-8"?>
<svg width="19px" height="19px" viewBox="0 0 19 19" version="1.1" xmlns="http://www.w3.org/2000/svg" xmlns:xlink="http://www.w3.org/1999/xlink">
    <!-- Generator: Sketch 56.2 (81672) - https://sketch.com -->
    <title>boy</title>
    <desc>Created with Sketch.</desc>
    <g id="Page-1" stroke="none" stroke-width="1" fill="none" fill-rule="evenodd">
        <g id="my_project_none" transform="translate(-1198.000000, -68.000000)" fill-rule="nonzero">
            <g id="boy" transform="translate(1198.000000, 68.000000)">
                <path d="M2.19759036,6.63492063 L2.19759036,12.3521434 C2.19759036,16.0236035 5.38169355,19 9.30953175,19 L9.73613317,19 C13.6640108,19 16.8481928,16.0236035 16.8481928,12.3521434 L16.8481928,6.63492063 L2.19759036,6.63492063 Z" id="Path" fill="#FFE2C5"></path>
                <path d="M3.95918377,12.3521434 L3.95918377,6.63492063 L2.19759036,6.63492063 L2.19759036,12.3521434 C2.19759036,16.0236035 5.37696526,19 9.29897074,19 L9.72493867,19 C9.95019882,19 10.1728227,18.9897256 10.3927711,18.970512 C6.78400509,18.6553428 3.95918377,15.8127365 3.95918377,12.3521434 Z" id="Path" fill="#414042" opacity="0.1"></path>
                <path d="M17.5807229,8.65986395 L17.5807229,7.55581178 C17.0001007,3.55963628 13.9628908,0 9.49998031,0 C5.0370698,0 2.05668947,3.45332976 1.41927711,7.55581178 L1.41927711,8.65986395 L17.5807229,8.65986395 L17.5807229,8.65986395 Z" id="Path" fill="#00997C"></path>
                <path d="M14.531259,1.81662883 L14.1199427,2.05568673 L12.8611109,1.32416658 C12.6898542,1.22448479 12.473216,1.22455912 12.3018803,1.32416658 L11.043088,2.05572389 L9.78433516,1.32416658 C9.61299943,1.22455912 9.39640073,1.22455912 9.22502551,1.32416658 L7.9663912,2.05572389 L6.70787538,1.32416658 C6.53642116,1.22455912 6.31994096,1.22455912 6.14856573,1.32416658 L4.88977344,2.05572389 L4.46566024,1.80915827 C4.19783461,2.03769792 3.94529412,2.28407771 3.70843373,2.54625346 L4.61017786,3.07038196 C4.78151359,3.16998941 4.99803329,3.16998941 5.16940851,3.07038196 L6.42820081,2.33882464 L7.68659814,3.07038196 C7.85805236,3.16998941 8.07453256,3.16998941 8.24590778,3.07038196 L9.50462109,2.33882464 L10.7633344,3.07038196 C10.8490023,3.12022285 10.9460056,3.14512472 11.043009,3.14512472 C11.1398938,3.14512472 11.2369367,3.12018569 11.3226045,3.07038196 L12.5813968,2.33882464 L13.8401101,3.07038196 C14.0115249,3.16998941 14.2280446,3.16998941 14.3994198,3.07038196 L15.2915663,2.55190284 C15.0539159,2.29073059 14.8001116,2.04509414 14.531259,1.81662883 Z" id="Path" fill="#FFFFFF"></path>
                <g id="Group" transform="translate(5.356627, 3.403628)" fill="#008269">
                    <path d="M2.44530065,1.03363916 L1.93953286,1.03363916 L2.29716519,0.699372716 C2.39317307,0.609656829 2.39317307,0.464092804 2.29716519,0.374339536 C2.20107838,0.284548886 2.04544538,0.284548886 1.94939804,0.374339536 L1.59176571,0.708568594 L1.59176571,0.235840636 C1.59176571,0.108892657 1.48167036,0.00598105909 1.34588609,0.00598105909 C1.21010182,0.00598105909 1.09992755,0.108892657 1.09992755,0.235840636 L1.09992755,0.708568594 L0.742374148,0.374339536 C0.646287344,0.284548886 0.490654343,0.284548886 0.394528078,0.374339536 C0.298520195,0.464055422 0.298520195,0.609619448 0.394528078,0.699447479 L0.75208148,1.03363916 L0.24639261,1.03363916 C0.110529421,1.03363916 0.000512989099,1.13647599 0.000512989099,1.26342397 C0.000512989099,1.39037195 0.110529421,1.49320878 0.24639261,1.49320878 L0.752160402,1.49320878 L0.394528078,1.82747522 C0.298520195,1.91726587 0.298520195,2.06286728 0.394528078,2.15258317 C0.442591211,2.19732896 0.505412645,2.21987008 0.568470843,2.21987008 C0.631331738,2.21987008 0.694350476,2.19736635 0.742334687,2.15258317 L1.09988809,1.81835411 L1.09988809,2.29089516 C1.09988809,2.41784314 1.21006236,2.52079212 1.34584663,2.52079212 C1.4816309,2.52079212 1.59172625,2.41784314 1.59172625,2.29089516 L1.59172625,1.81835411 L1.94935858,2.15258317 C1.99726387,2.19732896 2.06024314,2.21987008 2.12322242,2.21987008 C2.18608332,2.21987008 2.24910205,2.19736635 2.29708627,2.15258317 C2.39309415,2.06286728 2.39309415,1.91730325 2.29708627,1.82747522 L1.93945394,1.49320878 L2.44522173,1.49320878 C2.58108492,1.49320878 2.69118032,1.39037195 2.69118032,1.26342397 C2.6912592,1.13647599 2.58116384,1.03363916 2.44530065,1.03363916 Z" id="Path"></path>
                    <path d="M8.04007815,1.03363916 L7.53438928,1.03363916 L7.89202161,0.699372716 C7.98810841,0.609656829 7.98810841,0.464092804 7.89202161,0.374339536 C7.79613211,0.284548886 7.6403018,0.284548886 7.54425446,0.374339536 L7.18662213,0.708605976 L7.18662213,0.235840636 C7.18662213,0.108892657 7.0766057,0.00598105909 6.94074251,0.00598105909 C6.80487932,0.00598105909 6.69486289,0.108892657 6.69486289,0.235840636 L6.69486289,0.708568594 L6.33730949,0.374339536 C6.24122269,0.284548886 6.08551076,0.284548886 5.9893845,0.374339536 C5.89337662,0.464055422 5.89337662,0.609619448 5.9893845,0.699447479 L6.3469379,1.03363916 L5.84124903,1.03363916 C5.70538584,1.03363916 5.59536941,1.13647599 5.59536941,1.26342397 C5.59536941,1.39037195 5.70538584,1.49320878 5.84124903,1.49320878 L6.34701682,1.49320878 L5.9893845,1.82747522 C5.89337662,1.91726587 5.89337662,2.06286728 5.9893845,2.15258317 C6.03744763,2.19732896 6.10034799,2.21987008 6.16332726,2.21987008 C6.22618816,2.21987008 6.2892069,2.19736635 6.33727003,2.15258317 L6.69482343,1.81831673 L6.69482343,2.29089516 C6.69482343,2.41784314 6.80483986,2.52079212 6.94070305,2.52079212 C7.07656624,2.52079212 7.18658267,2.41784314 7.18658267,2.29089516 L7.18658267,1.81831673 L7.544215,2.15258317 C7.59219921,2.19732896 7.65513902,2.21987008 7.71815776,2.21987008 C7.78101866,2.21987008 7.8440374,2.19736635 7.89194269,2.15258317 C7.98802949,2.06286728 7.98802949,1.91730325 7.89194269,1.82747522 L7.53431036,1.49320878 L8.03999923,1.49320878 C8.17594134,1.49320878 8.28595778,1.39037195 8.28595778,1.26342397 C8.28599723,1.13647599 8.17602026,1.03363916 8.04007815,1.03363916 Z" id="Path"></path>
                </g>
                <g id="Group" transform="translate(3.296386, 4.308390)" fill="#FFFFFF">
                    <polygon id="Path" points="0.70883648 1.42203632 0.0116254385 0.713393162 0.70883648 0.00470940171 1.40608693 0.713393162"></polygon>
                    <polygon id="Path" points="6.22646662 1.42203632 5.52925557 0.713393162 6.22646662 0.00470940171 6.92371707 0.713393162"></polygon>
                    <polygon id="Path" points="11.7441362 1.42203632 11.0469251 0.713393162 11.7441362 0.00470940171 12.441426 0.713393162"></polygon>
                </g>
                <g id="Group" transform="translate(0.000000, 9.564626)" fill="#ED5D51">
                    <path d="M2.74187344,3.6821173 C2.74187344,4.3772471 2.1366722,4.94074593 1.39023237,4.94074593 L1.39023237,4.94074593 C0.643753112,4.94074593 0.0386701245,4.3772471 0.0386701245,3.6821173 L0.0386701245,1.2616236 C0.0386701245,0.566493806 0.643792531,0.00288404914 1.39023237,0.00288404914 L1.39023237,0.00288404914 C2.13671162,0.00288404914 2.74187344,0.566493806 2.74187344,1.2616236 L2.74187344,3.6821173 Z" id="Path"></path>
                    <path d="M18.9613693,3.6821173 C18.9613693,4.3772471 18.3562469,4.94074593 17.6098071,4.94074593 L17.6098071,4.94074593 C16.8633278,4.94074593 16.2582054,4.3772471 16.2582054,3.6821173 L16.2582054,1.2616236 C16.2582054,0.566493806 16.8633278,0.00288404914 17.6098071,0.00288404914 L17.6098071,0.00288404914 C18.3562863,0.00288404914 18.9613693,0.566493806 18.9613693,1.2616236 L18.9613693,3.6821173 Z" id="Path"></path>
                </g>
                <g id="Group" transform="translate(5.402410, 11.287982)" fill="#636052">
                    <path d="M1.75139334,0.871422093 C1.75139334,1.32080499 1.36351146,1.68506479 0.884978975,1.68506479 L0.884978975,1.68506479 C0.406446492,1.68506479 0.0186831089,1.32080499 0.0186831089,0.87138484 L0.0186831089,0.87138484 C0.0186831089,0.42207645 0.406485991,0.0576676385 0.884978975,0.0576676385 L0.884978975,0.0576676385 C1.36351146,0.0577048915 1.75139334,0.42207645 1.75139334,0.871422093 L1.75139334,0.871422093 Z" id="Path"></path>
                    <path d="M8.04400661,0.832418205 C8.04400661,1.2818011 7.65620373,1.64613541 7.17771075,1.64613541 L7.17771075,1.64613541 C6.69937576,1.64613541 6.31129639,1.28183835 6.31129639,0.832418205 L6.31129639,0.832418205 C6.31129639,0.383109815 6.69933626,0.0188500162 7.17771075,0.0188500162 L7.17771075,0.0188500162 C7.65620373,0.0188127632 8.04400661,0.383072562 8.04400661,0.832418205 L8.04400661,0.832418205 Z" id="Path"></path>
                    <path d="M4.10787451,4.94667638 C2.94794179,4.94667638 2.00426704,4.0635196 2.00426704,2.97811629 C2.00426704,2.81178167 2.14729355,2.67700032 2.32361786,2.67700032 C2.49998167,2.67700032 2.64288968,2.81178167 2.64288968,2.97811629 C2.64288968,3.73144639 3.30003742,4.34433269 4.10783501,4.34433269 C4.9156326,4.34433269 5.57278034,3.73148364 5.57278034,2.97811629 C5.57278034,2.81178167 5.71580685,2.67700032 5.89213116,2.67700032 C6.06849497,2.67700032 6.21140298,2.81178167 6.21140298,2.97811629 C6.21152147,4.0635196 5.26784673,4.94667638 4.10787451,4.94667638 Z" id="Path"></path>
                </g>
                <g id="Group" transform="translate(3.800000, 13.097506)" fill="#FFC197">
                    <path d="M2.17872455,1.00492414 C2.17872455,1.55670278 1.69464686,2.0041048 1.09761113,2.0041048 C0.500496469,2.0041048 0.016497715,1.55670278 0.016497715,1.00492414 C0.016497715,0.45296141 0.500496469,0.00574347557 1.09761113,0.00574347557 C1.6946074,0.00574347557 2.17872455,0.45296141 2.17872455,1.00492414 Z" id="Path"></path>
                    <path d="M11.4292459,1.00492414 C11.4292459,1.55670278 10.9452472,2.0041048 10.3481325,2.0041048 C9.7510968,2.0041048 9.26709805,1.55670278 9.26709805,1.00492414 C9.26709805,0.45296141 9.7510968,0.00574347557 10.3481325,0.00574347557 C10.9452472,0.00574347557 11.4292459,0.45296141 11.4292459,1.00492414 Z" id="Path"></path>
                </g>
                <path d="M2.80961111,9.95238095 C1.58857963,9.95238095 0.595180723,9.02288044 0.595180723,7.88040888 C0.595180723,7.38294386 1.02620026,6.97959184 1.55798683,6.97959184 L17.3961512,6.97959184 C17.9279772,6.97959184 18.3590361,7.3829067 18.3590361,7.88040888 C18.3590361,9.02288044 17.3656372,9.95238095 16.1444481,9.95238095 L2.80961111,9.95238095 Z" id="Path" fill="#00B494"></path>
                <g id="Group" transform="translate(0.320482, 0.258503)" fill="#414042" opacity="0.1">
                    <path d="M2.30963515,7.67371122 C2.30963515,7.21272279 2.69392261,6.83559762 3.18031543,6.80467721 C3.91381507,3.34300034 6.40186799,0.473037755 10.0637968,0.0779312925 C9.7834317,0.0473445578 9.49658871,0.0310316327 9.20326785,0.0310316327 C5.06497897,0.0310316327 2.23778616,3.07461565 1.4474077,6.80467721 C0.961014883,6.83559762 0.576727427,7.21268571 0.576727427,7.67371122 C0.576727427,8.77883776 1.54157373,9.67793946 2.72749691,9.67793946 L4.46036513,9.67793946 C3.27448146,9.67793946 2.30963515,8.77887483 2.30963515,7.67371122 Z" id="Path"></path>
                    <path d="M1.2945854,12.8466139 L1.2945854,10.4938452 C1.2945854,10.0350813 1.56570773,9.63552585 1.96662433,9.42605306 C1.7770283,9.32702619 1.55855837,9.2703017 1.32578975,9.2703017 C0.600703425,9.2703017 0.0128767305,9.81811939 0.0128767305,10.4937711 L0.0128767305,12.8465398 C0.0128767305,13.5221915 0.600663926,14.069935 1.32578975,14.069935 C1.55859787,14.069935 1.7770678,14.0132105 1.96662433,13.9141837 C1.56570773,13.7048592 1.2945854,13.3053037 1.2945854,12.8466139 Z" id="Path"></path>
                </g>
            </g>
        </g>
    </g>
</svg>