<?xml version="1.0" encoding="UTF-8"?>
<svg width="24px" height="25px" viewBox="0 0 24 25" version="1.1" xmlns="http://www.w3.org/2000/svg" xmlns:xlink="http://www.w3.org/1999/xlink">
    <!-- Generator: Sketch 56.2 (81672) - https://sketch.com -->
    <title>Group 11 Copy</title>
    <desc>Created with Sketch.</desc>
    <g id="Page-1" stroke="none" stroke-width="1" fill="none" fill-rule="evenodd">
        <g id="my_project_test_apply2-3" transform="translate(-501.000000, -632.000000)" fill-rule="nonzero">
            <g id="Group-11-Copy" transform="translate(501.277000, 632.477000)">
                <path d="M20.7600463,10.9397056 L20.7600463,20.7600002 L10.9397056,20.7600002 L10.9397056,15.4173491 L13.407504,15.4173491 C14.5157217,15.4173491 15.4173491,14.5157217 15.4173491,13.407504 L15.4173491,10.9397056 L20.7600463,10.9397056 Z" id="Shape" fill="#FFFFFF"></path>
                <path d="M14.6541395,2.00984506 L14.6541395,13.407504 C14.6541395,14.0949407 14.0949408,14.6541395 13.407504,14.6541395 L2.00984506,14.6541395 C1.32240831,14.6541395 0.763209563,14.0949407 0.763209563,13.407504 L0.763209563,2.00984506 C0.763209563,1.32240831 1.32240831,0.763209562 2.00984506,0.763209562 L13.407504,0.763209562 C14.0949408,0.763209562 14.6541395,1.32245437 14.6541395,2.00984506 Z" id="Shape" fill="#FFFFFF"></path>
                <path d="M22.7953179,10.1510234 L22.7953179,21.5486824 C22.7953179,22.2361191 22.2361191,22.7953179 21.5486824,22.7953179 L10.1510234,22.7953179 C9.46358669,22.7953179 8.90438794,22.2361191 8.90438794,21.5486824 L8.90438794,15.4173491 L10.1764499,15.4173491 L10.1764499,21.1416281 C10.1764499,21.3522719 10.3474339,21.5232559 10.5580778,21.5232559 L21.1416281,21.5232559 C21.3522719,21.5232559 21.5232559,21.3522719 21.5232559,21.1416281 L21.5232559,10.5581238 C21.5232559,10.34748 21.3522719,10.176496 21.1416281,10.176496 L15.4173491,10.176496 L15.4173491,8.904434 L21.5486824,8.904434 C22.2361191,8.904434 22.7953179,9.46363275 22.7953179,10.1510234 Z" id="Shape" fill="#FFFFFF"></path>
                <path d="M23.5585735,10.1510234 L23.5585735,21.5486824 C23.5585735,22.6569001 22.6569461,23.5585274 21.5487284,23.5585274 L10.1510234,23.5585274 C9.04280575,23.5585274 8.14117838,22.6569001 8.14117838,21.5486824 L8.14117838,15.4173491 L2.00984506,15.4173491 C0.901627375,15.4173491 0,14.5157217 0,13.407504 L0,2.00984506 C0,0.901627375 0.901627375,0 2.00984506,0 L13.407504,0 C14.5157217,0 15.4173491,0.901627375 15.4173491,2.00984506 L15.4173491,8.14117838 L21.5486824,8.14117838 C22.6569001,8.14117838 23.5585735,9.04280575 23.5585735,10.1510234 Z M22.7953179,21.5486824 L22.7953179,10.1510234 C22.7953179,9.46358669 22.2361191,8.90438794 21.5486824,8.90438794 L15.4173491,8.90438794 L15.4173491,10.1764499 L21.1416281,10.1764499 C21.3522719,10.1764499 21.5232559,10.3474339 21.5232559,10.5580778 L21.5232559,21.1416281 C21.5232559,21.3522719 21.3522719,21.5232559 21.1416281,21.5232559 L10.5581238,21.5232559 C10.34748,21.5232559 10.176496,21.3522719 10.176496,21.1416281 L10.176496,15.4173491 L8.904434,15.4173491 L8.904434,21.5486824 C8.904434,22.2361191 9.46363275,22.7953179 10.1510695,22.7953179 L21.5487284,22.7953179 C22.2361191,22.7953179 22.7953179,22.2361191 22.7953179,21.5486824 Z M20.7600463,20.7600463 L20.7600463,10.9397056 L15.4173491,10.9397056 L15.4173491,13.407504 C15.4173491,14.5157217 14.5157217,15.4173491 13.407504,15.4173491 L10.9397056,15.4173491 L10.9397056,20.7600463 L20.7600463,20.7600463 L20.7600463,20.7600463 Z M14.6541395,13.407504 L14.6541395,2.00984506 C14.6541395,1.32240831 14.0949408,0.763209563 13.407504,0.763209563 L2.00984506,0.763209563 C1.32240831,0.763209563 0.763209563,1.32240831 0.763209563,2.00984506 L0.763209563,13.407504 C0.763209563,14.0949407 1.32240831,14.6541395 2.00984506,14.6541395 L13.407504,14.6541395 C14.0949407,14.6541395 14.6541395,14.0949407 14.6541395,13.407504 Z" id="Shape" fill="#029BFF"></path>
            </g>
        </g>
    </g>
</svg>