<?xml version="1.0" encoding="UTF-8"?>
<svg width="22px" height="23px" viewBox="0 0 22 23" version="1.1" xmlns="http://www.w3.org/2000/svg" xmlns:xlink="http://www.w3.org/1999/xlink">
    <!-- Generator: Sketch 56.2 (81672) - https://sketch.com -->
    <title>Group 10 Copy</title>
    <desc>Created with Sketch.</desc>
    <g id="Page-1" stroke="none" stroke-width="1" fill="none" fill-rule="evenodd">
        <g id="my_project_test_apply2-3" transform="translate(-285.000000, -633.000000)" fill-rule="nonzero">
            <g id="Group-10-Copy" transform="translate(285.336000, 633.951000)">
                <path d="M11.0208288,2.59289555 L15.4397801,12.1113945 C14.9403949,12.8132387 13.1355452,15.5315337 12.9284943,18.444899 L8.42146293,18.444899 C8.21441199,15.5315337 6.40960407,12.813197 5.91017717,12.1113945 L10.3291284,2.59289555 L10.3291284,10.740016 C9.69461747,10.8954294 9.2224495,11.4690357 9.2224495,12.1505922 C9.2224495,12.9515788 9.87403379,13.6031214 10.6749786,13.6031214 C11.4759234,13.6031214 12.1275077,12.9515371 12.1275077,12.1505922 C12.1275077,11.4690357 11.655298,10.8954294 11.0208288,10.740016 L11.0208288,2.59289555 L11.0208288,2.59289555 Z" id="Shape" fill="#FFFFFF"></path>
                <path d="M13.6492069,19.5284934 L13.6492069,20.2662793 C13.6492069,20.4825557 13.4735058,20.6582151 13.2572712,20.6582151 L8.09268608,20.6582151 C7.87640969,20.6582151 7.70075034,20.482514 7.70075034,20.2662793 L7.70075034,19.5284934 C7.70075034,19.312217 7.87645143,19.1365577 8.09268608,19.1365577 L13.2572712,19.1365577 C13.4735058,19.1365577 13.6492069,19.3122588 13.6492069,19.5284934 Z" id="Shape" fill="#FFFFFF"></path>
                <path d="M20.2663211,0.69170041 C20.4825975,0.69170041 20.6582568,0.867401498 20.6582568,1.08363615 C20.6582568,1.29987079 20.4825557,1.47557188 20.2663211,1.47557188 C20.0500864,1.47557188 19.8743854,1.29987079 19.8743854,1.08363615 C19.8743854,0.867401498 20.0500447,0.69170041 20.2663211,0.69170041 Z" id="Shape" fill="#FFFFFF"></path>
                <path d="M20.6582568,10.2830011 L20.6582568,11.0669144 L19.8743436,11.0669144 L19.8743436,10.2830011 L20.2363071,10.2830011 C20.2367662,10.2830011 20.2372254,10.2830011 20.2381438,10.2830011 C20.238603,10.2830011 20.2395213,10.2830011 20.2404397,10.2830011 L20.6582568,10.2830011 Z" id="Shape" fill="#FFFFFF"></path>
                <path d="M10.6749786,11.3897218 C11.0945907,11.3897218 11.4358491,11.7309384 11.4358491,12.1505922 C11.4358491,12.5702461 11.0946325,12.9114627 10.6749786,12.9114627 C10.2553665,12.9114627 9.91410817,12.5702461 9.91410817,12.1505922 C9.91410817,11.7309384 10.2553665,11.3897218 10.6749786,11.3897218 Z" id="Shape" fill="#FFFFFF"></path>
                <path d="M1.47557188,10.2830011 L1.47557188,11.0669144 L0.69170041,11.0669144 L0.69170041,10.2830011 L1.10947577,10.2830011 C1.11039414,10.2830011 1.11131251,10.2830011 1.1117717,10.2830011 C1.11269007,10.2830011 1.11314925,10.2830011 1.11360844,10.2830011 L1.47557188,10.2830011 Z" id="Shape" fill="#FFFFFF"></path>
                <polygon id="Rectangle-path" fill="#FFFFFF" points="10.2830011 0.69170041 11.0669144 0.69170041 11.0669144 1.47561363 10.2830011 1.47561363"></polygon>
                <path d="M1.08363615,0.69170041 C1.29991254,0.69170041 1.47557188,0.867401498 1.47557188,1.08363615 C1.47557188,1.29987079 1.29987079,1.47557188 1.08363615,1.47557188 C0.867401498,1.47557188 0.69170041,1.29987079 0.69170041,1.08363615 C0.69170041,0.867401498 0.867359754,0.69170041 1.08363615,0.69170041 Z" id="Shape" fill="#FFFFFF"></path>
                <path d="M21.3499572,9.93719268 L21.3499572,11.4127646 C21.3499572,11.6036605 21.195003,11.7586148 21.004107,11.7586148 L19.5285351,11.7586148 C19.3376392,11.7586148 19.1826849,11.6036605 19.1826849,11.4127646 L19.1826849,9.93719268 C19.1826849,9.74629672 19.3376392,9.59134247 19.5285351,9.59134247 L19.857312,9.59134247 C19.6161561,7.53519308 18.6860549,5.61095517 17.2123198,4.13763747 C15.7390438,2.66390233 13.8147642,1.73380114 11.7586148,1.49264524 L11.7586148,1.82142209 C11.7586148,1.95654787 11.6811376,2.073181 11.5686372,2.12991129 L16.1531039,12.0048217 C16.2070374,12.1210374 16.1923017,12.2579582 16.1148246,12.3598974 C16.0913226,12.390788 13.8350518,15.395907 13.6173979,18.5066386 C14.0383875,18.6555817 14.3409073,19.0572021 14.3409073,19.5284934 L14.3409073,20.2662793 C14.3409073,20.8638885 13.8548803,21.3499155 13.2572712,21.3499155 L8.09268608,21.3499155 C7.49507696,21.3499155 7.00904993,20.8638885 7.00904993,20.2662793 L7.00904993,19.5284934 C7.00904993,19.0572438 7.31152797,18.6555817 7.73255938,18.5066386 C7.51490543,15.3913151 5.25863463,12.390788 5.23513268,12.3598974 C5.15765555,12.2579999 5.14291987,12.1210374 5.1968533,12.0048217 L9.78132005,2.12991129 C9.6688196,2.073181 9.59134247,1.95654787 9.59134247,1.82142209 L9.59134247,1.49264524 C7.53519308,1.73380114 5.61095517,2.66390233 4.13763747,4.13763747 C2.66390233,5.61091343 1.73380114,7.53519308 1.49264524,9.59134247 L1.82142209,9.59134247 C2.01231804,9.59134247 2.16727229,9.74629672 2.16727229,9.93719268 L2.16727229,11.4127646 C2.16727229,11.6036605 2.01231804,11.7586148 1.82142209,11.7586148 L0.345850205,11.7586148 C0.15495425,11.7586148 0,11.6036605 0,11.4127646 L0,9.93719268 C0,9.74629672 0.15495425,9.59134247 0.345850205,9.59134247 L0.796812156,9.59134247 C1.04076491,7.35076747 2.04554638,5.25124591 3.64839615,3.64839615 C4.61999102,2.67680127 5.77417476,1.92565721 7.03117433,1.42948635 L2.11054201,1.42948635 C1.96573158,1.85786472 1.56043772,2.16727229 1.08363615,2.16727229 C0.486027029,2.16727229 0,1.68124526 0,1.08363615 C0,0.486027029 0.486027029,0 1.08363615,0 C1.56043772,0 1.96577333,0.30940757 2.11054201,0.737785941 L9.59134247,0.737785941 L9.59134247,0.345850205 C9.59134247,0.15495425 9.74629672,0 9.93719268,0 L11.4127646,0 C11.6036605,0 11.7586148,0.15495425 11.7586148,0.345850205 L11.7586148,0.737785941 L19.2394152,0.737785941 C19.3841839,0.30940757 19.7895195,0 20.2663211,0 C20.8639302,0 21.3499572,0.486027029 21.3499572,1.08363615 C21.3499572,1.68124526 20.8639302,2.16727229 20.2663211,2.16727229 C19.7895195,2.16727229 19.3841839,1.85786472 19.2394152,1.42948635 L14.3187412,1.42948635 C15.5757407,1.92565721 16.7299662,2.67680127 17.7015193,3.64839615 C19.3043691,5.25078673 20.3091506,7.35072572 20.5531033,9.59134247 L21.0040653,9.59134247 C21.195003,9.59134247 21.3499572,9.74625498 21.3499572,9.93719268 Z M20.6582568,11.0669144 L20.6582568,10.2830011 L20.2404815,10.2830011 C20.2395631,10.2830011 20.2386447,10.2830011 20.2381855,10.2830011 C20.2372672,10.2830011 20.236808,10.2830011 20.2363488,10.2830011 L19.8743854,10.2830011 L19.8743854,11.0669144 L20.6582568,11.0669144 Z M20.6582568,1.08363615 C20.6582568,0.867359754 20.4825557,0.69170041 20.2663211,0.69170041 C20.0500864,0.69170041 19.8743854,0.867401498 19.8743854,1.08363615 C19.8743854,1.29987079 20.0500864,1.47557188 20.2663211,1.47557188 C20.4825557,1.47557188 20.6582568,1.29991254 20.6582568,1.08363615 Z M15.4397383,12.1113528 L11.0208288,2.59289555 L11.0208288,10.740016 C11.6553398,10.8954294 12.1275077,11.4690357 12.1275077,12.1505922 C12.1275077,12.9515788 11.4759234,13.6031214 10.6749786,13.6031214 C9.87403379,13.6031214 9.2224495,12.9515371 9.2224495,12.1505922 C9.2224495,11.4690357 9.69465922,10.8954294 10.3291284,10.740016 L10.3291284,2.59289555 L5.91017717,12.1113945 C6.40956233,12.8132387 8.21441199,15.5315337 8.42146293,18.444899 L12.9284526,18.444899 C13.1355035,15.5314919 14.9403532,12.813197 15.4397383,12.1113528 Z M13.6492069,20.2663211 L13.6492069,19.5285351 C13.6492069,19.3122588 13.4735058,19.1365994 13.2572712,19.1365994 L8.09268608,19.1365994 C7.87640969,19.1365994 7.70075034,19.3123005 7.70075034,19.5285351 L7.70075034,20.2663211 C7.70075034,20.4825975 7.87645143,20.6582568 8.09268608,20.6582568 L13.2572712,20.6582568 C13.4735058,20.6582568 13.6492069,20.4825557 13.6492069,20.2663211 Z M11.4358073,12.1505505 C11.4358073,11.7309384 11.0945907,11.38968 10.6749369,11.38968 C10.2553248,11.38968 9.91406642,11.7308967 9.91406642,12.1505505 C9.91406642,12.5702043 10.255283,12.911421 10.6749369,12.911421 C11.0945907,12.911421 11.4358073,12.5701626 11.4358073,12.1505505 Z M11.0669144,1.47557188 L11.0669144,0.69170041 L10.2830011,0.69170041 L10.2830011,1.47561363 L11.0669144,1.47561363 L11.0669144,1.47557188 Z M1.47557188,11.0669144 L1.47557188,10.2830011 L1.11360844,10.2830011 C1.11314925,10.2830011 1.11269007,10.2830011 1.1117717,10.2830011 C1.11131251,10.2830011 1.11039414,10.2830011 1.10947577,10.2830011 L0.69170041,10.2830011 L0.69170041,11.0669144 L1.47557188,11.0669144 Z M1.47557188,1.08363615 C1.47557188,0.867359754 1.29987079,0.69170041 1.08363615,0.69170041 C0.867401498,0.69170041 0.69170041,0.867401498 0.69170041,1.08363615 C0.69170041,1.29987079 0.867401498,1.47557188 1.08363615,1.47557188 C1.29987079,1.47557188 1.47557188,1.29991254 1.47557188,1.08363615 Z" id="Shape" fill="#029BFF"></path>
            </g>
        </g>
    </g>
</svg>