<svg xmlns="http://www.w3.org/2000/svg" width="24" height="25" viewBox="0 0 24 25">
    <g fill="none" fill-rule="nonzero">
        <path fill="#FFF" d="M21.037 11.417v9.82h-9.82v-5.343h2.468c1.108 0 2.01-.901 2.01-2.01v-2.467h5.342z"/>
        <path fill="#FFF" d="M14.931 2.487v11.398c0 .687-.56 1.246-1.246 1.246H2.287c-.688 0-1.247-.56-1.247-1.246V2.487c0-.688.56-1.247 1.247-1.247h11.398c.687 0 1.246.56 1.246 1.247z"/>
        <path fill="#FFF" d="M23.072 10.628v11.398c0 .687-.559 1.246-1.246 1.246H10.428c-.687 0-1.247-.559-1.247-1.246v-6.132h1.272v5.725c0 .21.171.381.382.381H21.42c.21 0 .381-.17.381-.381V11.035a.382.382 0 0 0-.381-.382h-5.725V9.381h6.132c.687 0 1.246.56 1.246 1.247z"/>
        <path fill="#CACACA" d="M23.836 10.628v11.398c0 1.108-.902 2.01-2.01 2.01H10.428a2.012 2.012 0 0 1-2.01-2.01v-6.132H2.287a2.012 2.012 0 0 1-2.01-2.01V2.488c0-1.108.902-2.01 2.01-2.01h11.398c1.108 0 2.01.902 2.01 2.01v6.131h6.13c1.109 0 2.01.902 2.01 2.01zm-.764 11.398V10.628c0-.687-.559-1.247-1.246-1.247h-6.132v1.272h5.725c.21 0 .381.171.381.382V21.62c0 .21-.17.381-.381.381H10.835a.382.382 0 0 1-.382-.381v-5.725H9.181v6.132c0 .687.56 1.246 1.247 1.246h11.398c.687 0 1.246-.559 1.246-1.246zm-2.035-.789v-9.82h-5.343v2.468c0 1.108-.901 2.01-2.01 2.01h-2.467v5.342h9.82zm-6.106-7.352V2.487c0-.688-.56-1.247-1.246-1.247H2.287c-.688 0-1.247.56-1.247 1.247v11.398c0 .687.56 1.246 1.247 1.246h11.398c.687 0 1.246-.56 1.246-1.246z"/>
    </g>
</svg>
