<?xml version="1.0" encoding="UTF-8"?>
<svg width="27px" height="17px" viewBox="0 0 27 17" version="1.1" xmlns="http://www.w3.org/2000/svg" xmlns:xlink="http://www.w3.org/1999/xlink">
    <!-- Generator: Sketch 56.2 (81672) - https://sketch.com -->
    <title>Group 9</title>
    <desc>Created with Sketch.</desc>
    <g id="Page-1" stroke="none" stroke-width="1" fill="none" fill-rule="evenodd">
        <g id="my_project_test_apply2-2" transform="translate(-210.000000, -463.000000)" fill-rule="nonzero">
            <g id="Group-9" transform="translate(223.428000, 471.637500) rotate(-90.000000) translate(-223.428000, -471.637500) translate(215.689500, 458.371500)">
                <path d="M14.5913545,15.9993142 L14.5913545,25.1581399 C14.5913545,25.4266209 14.3742122,25.6446808 14.106976,25.6446808 L9.54791607,25.6446808 C9.28062828,25.6446808 9.06353756,25.4265691 9.06353756,25.1581399 L9.06353756,15.9993142 C9.06353756,15.7308332 9.28067987,15.5127733 9.54791607,15.5127733 L11.4000487,15.5127733 L11.4000487,17.2523812 L10.7617772,16.6118303 C10.5947804,16.4440879 10.3246551,16.4440879 10.1577099,16.6118303 C9.99066145,16.7795726 9.99066145,17.0509038 10.1577099,17.2185943 L11.5254124,18.5924026 C11.5259799,18.5929727 11.5265473,18.5935427 11.5271148,18.5941127 C11.5361947,18.6032849 11.5465127,18.6124053 11.5567275,18.6210075 C11.5612674,18.6249976 11.5664264,18.6284696 11.5715338,18.6318897 C11.5777762,18.6370199 11.5835027,18.6416319 11.5903642,18.6461921 C11.5961423,18.6501823 11.6017656,18.6536543 11.6081111,18.6570744 C11.6143019,18.6604945 11.62008,18.6645365 11.6262708,18.6673866 C11.6320489,18.6708068 11.6382397,18.6736569 11.6445337,18.6765588 C11.6513951,18.679979 11.6575859,18.6828291 11.6639315,18.685731 C11.6701739,18.6880111 11.6764679,18.6902912 11.6827619,18.6926231 C11.6896233,18.6949032 11.6964332,18.6977533 11.7032947,18.7000853 C11.7094855,18.7017953 11.7158311,18.7029354 11.7226925,18.7046454 C11.729554,18.7063555 11.7369314,18.7086356 11.7443603,18.7097756 C11.7512218,18.7114857 11.7585992,18.7126258 11.7660281,18.7131958 C11.7728896,18.7143358 11.779132,18.7154759 11.785426,18.7160459 C11.7996648,18.717756 11.8133362,18.718326 11.827575,18.718326 C11.8418138,18.718326 11.8554852,18.717756 11.869724,18.7160459 C11.8759148,18.7154759 11.8822604,18.7143358 11.8891219,18.7131958 C11.8965508,18.7126258 11.9039282,18.7114857 11.9107897,18.7097756 C11.9182186,18.7086356 11.925596,18.7063555 11.9324575,18.7046454 C11.9393189,18.7029354 11.9455613,18.7017953 11.9518553,18.7000853 C11.9587168,18.6978052 11.9655267,18.694955 11.9723881,18.6926231 C11.9786305,18.690343 11.9849245,18.6880629 11.9912185,18.685731 C11.9975125,18.6828809 12.0037548,18.6800308 12.0106163,18.6765588 C12.0168587,18.6737087 12.0231527,18.6708586 12.0288276,18.6673866 C12.0350184,18.6645365 12.0407965,18.6604945 12.0469873,18.6570744 C12.0532297,18.6536543 12.0589561,18.6501823 12.0647342,18.6461921 C12.0715957,18.6416319 12.0772706,18.6370199 12.0835646,18.6318897 C12.088672,18.6284696 12.093831,18.6249976 12.0983709,18.6210075 C12.1086373,18.6124053 12.1189037,18.6032849 12.1279836,18.5941127 C12.1286026,18.5935427 12.1291701,18.5929727 12.129686,18.5924026 L13.4973885,17.2185943 C13.6644369,17.050852 13.6644369,16.7795208 13.4973885,16.6118303 C13.3303917,16.4440879 13.0602665,16.4440879 12.8933212,16.6118303 L12.2550497,17.2523812 L12.2550497,15.5127733 L14.1071823,15.5127733 C14.3742638,15.5127733 14.5913545,15.730885 14.5913545,15.9993142 Z M13.166645,20.5787789 C13.166645,19.8369193 12.5659827,19.2335754 11.8274202,19.2335754 C11.0888578,19.2335754 10.4881954,19.8369193 10.4881954,20.5787789 C10.4881954,21.3206385 11.0888578,21.9239824 11.8274202,21.9239824 C12.5659827,21.9239824 13.166645,21.3206385 13.166645,20.5787789 Z" id="Shape" fill="#FFFFFF"></path>
                <path d="M6.38503635,15.9993142 L6.38503635,25.1581399 C6.38503635,25.4266209 6.16789404,25.6446808 5.90065784,25.6446808 L1.34159795,25.6446808 C1.07431016,25.6446808 0.85721944,25.4265691 0.85721944,25.1581399 L0.85721944,15.9993142 C0.85721944,15.7308332 1.07436175,15.5127733 1.34159795,15.5127733 L3.19373054,15.5127733 L3.19373054,17.2523812 L2.55545906,16.6118303 C2.38846223,16.4440879 2.11833699,16.4440879 1.95139175,16.6118303 C1.78434333,16.7795726 1.78434333,17.0509038 1.95139175,17.2185943 L3.31909424,18.5924026 C3.31966173,18.5929727 3.32022922,18.5935427 3.32079671,18.5941127 C3.32987655,18.6032849 3.34019455,18.6124053 3.35040937,18.6210075 C3.35494929,18.6249976 3.36010829,18.6284696 3.3652157,18.6318897 C3.37150968,18.6370199 3.37718458,18.6416319 3.38404605,18.6461921 C3.38982413,18.6501823 3.39544744,18.6536543 3.40179301,18.6570744 C3.40798381,18.6604945 3.41376189,18.6645365 3.41995269,18.6673866 C3.42573077,18.6708068 3.43192157,18.6736569 3.43821555,18.6765588 C3.44507702,18.679979 3.45131941,18.6828291 3.45761339,18.685731 C3.46390737,18.6880111 3.47014976,18.6902912 3.47644374,18.6926231 C3.48330521,18.6949032 3.49011509,18.6977533 3.49697656,18.7000853 C3.50316736,18.7017953 3.50951293,18.7029354 3.5163744,18.7046454 C3.52323587,18.7063555 3.53061324,18.7086356 3.5380422,18.7097756 C3.54490367,18.7114857 3.55228104,18.7126258 3.55971,18.7131958 C3.56657147,18.7143358 3.57281386,18.7154759 3.57910784,18.7160459 C3.59334668,18.717756 3.60701803,18.718326 3.62125687,18.718326 C3.63549571,18.718326 3.64916706,18.717756 3.6634059,18.7160459 C3.6695967,18.7154759 3.67594227,18.7143358 3.68280374,18.7131958 C3.6902327,18.7126258 3.69761007,18.7114857 3.70447154,18.7097756 C3.7119005,18.7086356 3.71927787,18.7063555 3.72613934,18.7046454 C3.73300081,18.7029354 3.7392432,18.7017953 3.74553718,18.7000853 C3.75239865,18.6978052 3.75920853,18.694955 3.76607,18.6926231 C3.77236398,18.690343 3.77860637,18.6880629 3.78490035,18.685731 C3.79119433,18.6828809 3.79743672,18.6800308 3.80429819,18.6765588 C3.81059217,18.6737087 3.81683456,18.6708586 3.82250946,18.6673866 C3.82870026,18.6645365 3.83447834,18.6604945 3.84066914,18.6570744 C3.84696312,18.6536543 3.85263802,18.6501823 3.8584161,18.6461921 C3.86527757,18.6416319 3.87095247,18.6370199 3.87724645,18.6318897 C3.88235386,18.6284696 3.88751286,18.6249976 3.89205278,18.6210075 C3.90231919,18.6124053 3.9125856,18.6032849 3.92166544,18.5941127 C3.92228452,18.5935427 3.92280042,18.5929727 3.92336791,18.5924026 L5.2910704,17.2185943 C5.45811882,17.050852 5.45811882,16.7795208 5.2910704,16.6118303 C5.12407357,16.4440879 4.85394833,16.4440879 4.68700309,16.6118303 L4.04873161,17.2523812 L4.04873161,15.5127733 L5.9008642,15.5127733 C6.16794563,15.5127733 6.38503635,15.730885 6.38503635,15.9993142 Z M4.96032691,20.5787789 C4.96032691,19.8369193 4.35966454,19.2335754 3.6211021,19.2335754 C2.88253966,19.2335754 2.28187729,19.8369193 2.28187729,20.5787789 C2.28187729,21.3206385 2.88253966,21.9239824 3.6211021,21.9239824 C4.35971613,21.9239824 4.96032691,21.3206385 4.96032691,20.5787789 Z" id="Shape" fill="#FFFFFF"></path>
                <path d="M6.38503635,1.34520349 L6.38503635,5.49528504 L4.8902161,5.49528504 C4.71125039,4.96350499 4.21036308,4.57941284 3.6211021,4.57941284 C2.88253966,4.57941284 2.28187729,5.18275673 2.28187729,5.92461633 C2.28187729,6.51650794 2.66426237,7.01968317 3.19367895,7.19939602 L3.19367895,10.9905701 L1.34154636,10.9905701 C1.07425857,10.9905701 0.85716785,10.7724584 0.85716785,10.5040292 L0.85716785,1.34520349 C0.85716785,1.07672245 1.07431016,0.858662578 1.34154636,0.858662578 L5.90060625,0.858662578 C6.16794563,0.858662578 6.38503635,1.07672245 6.38503635,1.34520349 Z" id="Shape" fill="#FFFFFF"></path>
                <path d="M14.5913545,1.34520349 L14.5913545,10.5040292 C14.5913545,10.7725102 14.3742122,10.9905701 14.106976,10.9905701 L12.2548434,10.9905701 L12.2548434,7.19939602 C12.78426,7.01963135 13.166645,6.51650794 13.166645,5.92461633 C13.166645,5.18275673 12.5659827,4.57941284 11.8274202,4.57941284 C11.0888578,4.57941284 10.4881954,5.18275673 10.4881954,5.92461633 C10.4881954,6.51650794 10.8705805,7.01968317 11.3999971,7.19939602 L11.3999971,10.9905701 L9.54786448,10.9905701 C9.28057669,10.9905701 9.06348597,10.7724584 9.06348597,10.5040292 L9.06348597,7.01854313 L9.84992393,6.22802426 C10.0169724,6.06028191 10.0169724,5.78895075 9.84992393,5.62126022 L9.06348597,4.83068953 L9.06348597,1.34520349 C9.06348597,1.07672245 9.28062828,0.858662578 9.54786448,0.858662578 L14.1069244,0.858662578 C14.3742638,0.858662578 14.5913545,1.07672245 14.5913545,1.34520349 Z" id="Shape" fill="#FFFFFF"></path>
                <path d="M15.4462008,15.9993142 L15.4462008,25.1581399 C15.4462008,25.8999995 14.8455384,26.5033434 14.106976,26.5033434 L9.54791607,26.5033434 C8.80935363,26.5033434 8.20869126,25.8999995 8.20869126,25.1581399 L8.20869126,15.9993142 C8.20869126,15.2574546 8.80935363,14.6541107 9.54791607,14.6541107 L11.4000487,14.6541107 L11.4000487,11.8492327 L9.54791607,11.8492327 C8.80935363,11.8492327 8.20869126,11.2458888 8.20869126,10.5040292 L8.20869126,7.72661587 C8.19899234,7.7271859 8.18986091,7.72775592 8.18021358,7.72775592 C8.07079119,7.72775592 7.9613688,7.68598875 7.87815413,7.60183256 C7.71110571,7.43409021 7.71110571,7.16275905 7.87815413,6.99506852 L8.51580653,6.35394762 L7.23983106,6.35394762 L7.23983106,10.5040292 C7.23983106,11.2458888 6.63916869,11.8492327 5.90060625,11.8492327 L4.04847366,11.8492327 L4.04847366,14.6541107 L5.90060625,14.6541107 C6.63916869,14.6541107 7.23983106,15.2574546 7.23983106,15.9993142 L7.23983106,25.1581399 C7.23983106,25.8999995 6.63916869,26.5033434 5.90060625,26.5033434 L1.34154636,26.5033434 C0.60298392,26.5033434 0.00232155,25.8999995 0.00232155,25.1581399 L0.00232155,15.9993142 C0.00232155,15.2574546 0.60298392,14.6541107 1.34154636,14.6541107 L3.19367895,14.6541107 L3.19367895,11.8492327 L1.34154636,11.8492327 C0.60298392,11.8492327 0.00232155,11.2458888 0.00232155,10.5040292 L0.00232155,1.34520349 C0.00232155,0.603343898 0.60298392,0 1.34154636,0 L5.90060625,0 C6.63916869,0 7.23983106,0.603343898 7.23983106,1.34520349 L7.23983106,5.49528504 L8.51580653,5.49528504 L7.87815413,4.85416413 C7.71110571,4.68642178 7.71110571,4.41509062 7.87815413,4.24740009 C7.96874617,4.1558336 8.09013744,4.11515466 8.20869126,4.12261678 L8.20869126,1.34520349 C8.20869126,0.603343898 8.80935363,0 9.54791607,0 L14.106976,0 C14.8455384,0 15.4462008,0.603343898 15.4462008,1.34520349 L15.4462008,10.5040292 C15.4462008,11.2458888 14.8455384,11.8492327 14.106976,11.8492327 L12.2548434,11.8492327 L12.2548434,14.6541107 L14.106976,14.6541107 C14.8455384,14.6541107 15.4462008,15.2574546 15.4462008,15.9993142 Z M14.5913545,25.1581917 L14.5913545,15.9993142 C14.5913545,15.7308332 14.3742122,15.5127733 14.106976,15.5127733 L12.2548434,15.5127733 L12.2548434,17.2523812 L12.8931149,16.6118303 C13.0601117,16.4440879 13.3302369,16.4440879 13.4971822,16.6118303 C13.6642306,16.7795726 13.6642306,17.0509038 13.4971822,17.2185943 L12.1294797,18.5924026 C12.1289122,18.5929727 12.1283447,18.5935427 12.1277772,18.5941127 C12.1186974,18.6032849 12.1083794,18.6124053 12.0981645,18.6210075 C12.0936246,18.6249976 12.0884656,18.6284696 12.0833582,18.6318897 C12.0771158,18.6370199 12.0713893,18.6416319 12.0645279,18.6461921 C12.0587498,18.6501823 12.0531265,18.6536543 12.0467809,18.6570744 C12.0405901,18.6604945 12.034812,18.6645365 12.0286212,18.6673866 C12.0228431,18.6708068 12.0166523,18.6736569 12.01041,18.6765588 C12.0035485,18.679979 11.9973577,18.6828291 11.9910121,18.685731 C11.9847697,18.6880111 11.9784757,18.6902912 11.9721818,18.6926231 C11.9653203,18.6949032 11.9585104,18.6977533 11.9516489,18.7000853 C11.9454581,18.7017953 11.9391126,18.7029354 11.9322511,18.7046454 C11.9253896,18.7063555 11.9180123,18.7086356 11.9105833,18.7097756 C11.9037218,18.7114857 11.8963445,18.7126258 11.8889155,18.7131958 C11.882054,18.7143358 11.8758116,18.7154759 11.8695177,18.7160459 C11.8552788,18.717756 11.8416075,18.718326 11.8273686,18.718326 C11.8131298,18.718326 11.7994584,18.717756 11.7852196,18.7160459 C11.7790288,18.7154759 11.7726832,18.7143358 11.7658218,18.7131958 C11.7583928,18.7126258 11.7510154,18.7114857 11.744154,18.7097756 C11.736725,18.7086356 11.7293476,18.7063555 11.7224862,18.7046454 C11.7156247,18.7029354 11.7093823,18.7017953 11.7030883,18.7000853 C11.6962269,18.6978052 11.689417,18.694955 11.6825555,18.6926231 C11.6763131,18.690343 11.6700191,18.6880629 11.6637252,18.685731 C11.6574828,18.6828809 11.6511888,18.6800308 11.6443273,18.6765588 C11.6380849,18.6737087 11.6317909,18.6708586 11.626116,18.6673866 C11.6199252,18.6645365 11.6141472,18.6604945 11.6079564,18.6570744 C11.601714,18.6536543 11.5959875,18.6501823 11.5902094,18.6461921 C11.5833479,18.6416319 11.577673,18.6370199 11.5713791,18.6318897 C11.5662716,18.6284696 11.5611126,18.6249976 11.5565727,18.6210075 C11.5463063,18.6124053 11.5360399,18.6032849 11.5269601,18.5941127 C11.526341,18.5935427 11.5257735,18.5929727 11.5252576,18.5924026 L10.1575551,17.2185943 C9.99050668,17.050852 9.99050668,16.7795208 10.1575551,16.6118303 C10.3245519,16.4440879 10.5946772,16.4440879 10.7616224,16.6118303 L11.3998939,17.2523812 L11.3998939,15.5127733 L9.5477613,15.5127733 C9.28047351,15.5127733 9.06338279,15.730885 9.06338279,15.9993142 L9.06338279,25.1581399 C9.06338279,25.4266209 9.2805251,25.6446808 9.5477613,25.6446808 L14.1068212,25.6446808 C14.3742638,25.6446808 14.5913545,25.4266209 14.5913545,25.1581917 Z M14.5913545,10.5040292 L14.5913545,1.34520349 C14.5913545,1.07672245 14.3742122,0.858662578 14.106976,0.858662578 L9.54791607,0.858662578 C9.28062828,0.858662578 9.06353756,1.07677427 9.06353756,1.34520349 L9.06353756,4.83068953 L9.84997552,5.6212084 C10.0170239,5.78895075 10.0170239,6.06028191 9.84997552,6.22797244 L9.06353756,7.0184913 L9.06353756,10.5039773 C9.06353756,10.7724584 9.28067987,10.9905183 9.54791607,10.9905183 L11.4000487,10.9905183 L11.4000487,7.1993442 C10.8706321,7.01957953 10.488247,6.51645612 10.488247,5.92456451 C10.488247,5.18270491 11.0889094,4.57936102 11.8274718,4.57936102 C12.5660343,4.57936102 13.1666966,5.18270491 13.1666966,5.92456451 C13.1666966,6.51645612 12.7843115,7.01963135 12.254895,7.1993442 L12.254895,10.9905183 L14.1070276,10.9905183 C14.3742638,10.9906219 14.5913545,10.7725102 14.5913545,10.5040292 Z M12.3118503,5.92461633 C12.3118503,5.65613529 12.094708,5.43807541 11.8274718,5.43807541 C11.5602356,5.43807541 11.3430933,5.65618711 11.3430933,5.92461633 C11.3430933,6.19304555 11.5602356,6.41115724 11.8274718,6.41115724 C12.094708,6.41115724 12.3118503,6.19309737 12.3118503,5.92461633 Z M6.38503635,25.1581917 L6.38503635,15.9993142 C6.38503635,15.7308332 6.16789404,15.5127733 5.90065784,15.5127733 L4.04852525,15.5127733 L4.04852525,17.2523812 L4.68679673,16.6118303 C4.85379356,16.4440879 5.1239188,16.4440879 5.29086404,16.6118303 C5.45791246,16.7795726 5.45791246,17.0509038 5.29086404,17.2185943 L3.92316155,18.5924026 C3.92259406,18.5929727 3.92202657,18.5935427 3.92145908,18.5941127 C3.91237924,18.6032849 3.90206124,18.6124053 3.89184642,18.6210075 C3.8873065,18.6249976 3.8821475,18.6284696 3.87704009,18.6318897 C3.87074611,18.6370199 3.86507121,18.6416319 3.85820974,18.6461921 C3.85243166,18.6501823 3.84680835,18.6536543 3.84046278,18.6570744 C3.83427198,18.6604945 3.8284939,18.6645365 3.8223031,18.6673866 C3.81652502,18.6708068 3.81033422,18.6736569 3.80404024,18.6765588 C3.79717877,18.679979 3.79093638,18.6828291 3.7846424,18.685731 C3.77834842,18.6880111 3.77210603,18.6902912 3.76581205,18.6926231 C3.75895058,18.6949032 3.7521407,18.6977533 3.74527923,18.7000853 C3.73908843,18.7017953 3.73274286,18.7029354 3.72588139,18.7046454 C3.71901992,18.7063555 3.71164255,18.7086356 3.70421359,18.7097756 C3.69735212,18.7114857 3.68997475,18.7126258 3.68254579,18.7131958 C3.67568432,18.7143358 3.66944193,18.7154759 3.66314795,18.7160459 C3.64890911,18.717756 3.63523776,18.718326 3.62099892,18.718326 C3.60676008,18.718326 3.59308873,18.717756 3.57884989,18.7160459 C3.57265909,18.7154759 3.56631352,18.7143358 3.55945205,18.7131958 C3.55202309,18.7126258 3.54464572,18.7114857 3.53778425,18.7097756 C3.53035529,18.7086356 3.52297792,18.7063555 3.51611645,18.7046454 C3.50925498,18.7029354 3.50301259,18.7017953 3.49671861,18.7000853 C3.48985714,18.6978052 3.48304726,18.694955 3.47618579,18.6926231 C3.46989181,18.690343 3.46364942,18.6880629 3.45735544,18.685731 C3.45106146,18.6828809 3.44481907,18.6800308 3.4379576,18.6765588 C3.43166362,18.6737087 3.42542123,18.6708586 3.41969474,18.6673866 C3.41350394,18.6645365 3.40772586,18.6604945 3.40153506,18.6570744 C3.39524108,18.6536543 3.38956618,18.6501823 3.3837881,18.6461921 C3.37692663,18.6416319 3.37125173,18.6370199 3.36495775,18.6318897 C3.35985034,18.6284696 3.35469134,18.6249976 3.35015142,18.6210075 C3.33988501,18.6124053 3.3296186,18.6032849 3.32053876,18.5941127 C3.31991968,18.5935427 3.31940378,18.5929727 3.31883629,18.5924026 L1.9511338,17.2185943 C1.78408538,17.050852 1.78408538,16.7795208 1.9511338,16.6118303 C2.11813063,16.4440879 2.38825587,16.4440879 2.55520111,16.6118303 L3.19347259,17.2523812 L3.19347259,15.5127733 L1.34134,15.5127733 C1.07405221,15.5127733 0.85696149,15.730885 0.85696149,15.9993142 L0.85696149,25.1581399 C0.85696149,25.4266209 1.0741038,25.6446808 1.34134,25.6446808 L5.90039989,25.6446808 C6.16794563,25.6446808 6.38503635,25.4266209 6.38503635,25.1581917 Z M6.38503635,10.5040292 L6.38503635,6.35394762 L4.8902161,6.35394762 C4.75628846,6.75063211 4.4434467,7.0649223 4.04847366,7.19944784 L4.04847366,10.9906219 L5.90060625,10.9906219 C6.16794563,10.9906219 6.38503635,10.7725102 6.38503635,10.5040292 Z M6.38503635,5.49528504 L6.38503635,1.34520349 C6.38503635,1.07672245 6.16789404,0.858662578 5.90065784,0.858662578 L1.34159795,0.858662578 C1.07431016,0.858662578 0.85721944,1.07677427 0.85721944,1.34520349 L0.85721944,10.5040292 C0.85721944,10.7725102 1.07436175,10.9905701 1.34159795,10.9905701 L3.19373054,10.9905701 L3.19373054,7.19939602 C2.66431396,7.01963135 2.28192888,6.51650794 2.28192888,5.92461633 C2.28192888,5.18275673 2.88259125,4.57941284 3.62115369,4.57941284 C4.21041467,4.57941284 4.71135357,4.96350499 4.89026769,5.49528504 L6.38503635,5.49528504 Z M4.1055322,5.92461633 C4.1055322,5.65613529 3.88838989,5.43807541 3.62115369,5.43807541 C3.35391749,5.43807541 3.13677518,5.65618711 3.13677518,5.92461633 C3.13677518,6.19304555 3.35391749,6.41115724 3.62115369,6.41115724 C3.88838989,6.41115724 4.1055322,6.19309737 4.1055322,5.92461633 Z" id="Shape" fill="#CACACA"></path>
                <path d="M11.8274202,19.2335754 C12.5659827,19.2335754 13.166645,19.8369193 13.166645,20.5787789 C13.166645,21.3206385 12.5659827,21.9239824 11.8274202,21.9239824 C11.0888578,21.9239824 10.4881954,21.3206385 10.4881954,20.5787789 C10.4881954,19.8368674 11.0888578,19.2335754 11.8274202,19.2335754 Z M12.3118503,20.5787789 C12.3118503,20.3102978 12.094708,20.0922379 11.8274718,20.0922379 C11.5602356,20.0922379 11.3430933,20.3103496 11.3430933,20.5787789 C11.3430933,20.8472599 11.5602356,21.0653198 11.8274718,21.0653198 C12.094708,21.0653198 12.3118503,20.8472081 12.3118503,20.5787789 Z" id="Shape" fill="#CACACA"></path>
                <path d="M3.6211021,19.2335754 C4.35966454,19.2335754 4.96032691,19.8369193 4.96032691,20.5787789 C4.96032691,21.3206385 4.35966454,21.9239824 3.6211021,21.9239824 C2.88253966,21.9239824 2.28187729,21.3206385 2.28187729,20.5787789 C2.28187729,19.8368674 2.88253966,19.2335754 3.6211021,19.2335754 Z M4.1055322,20.5787789 C4.1055322,20.3102978 3.88838989,20.0922379 3.62115369,20.0922379 C3.35391749,20.0922379 3.13677518,20.3103496 3.13677518,20.5787789 C3.13677518,20.8472599 3.35391749,21.0653198 3.62115369,21.0653198 C3.88838989,21.0653198 4.1055322,20.8472081 4.1055322,20.5787789 Z" id="Shape" fill="#CACACA"></path>
                <path d="M11.8274202,5.43807541 C12.094708,5.43807541 12.3117987,5.65618711 12.3117987,5.92461633 C12.3117987,6.19304555 12.0946564,6.41115724 11.8274202,6.41115724 C11.560184,6.41115724 11.3430417,6.19304555 11.3430417,5.92461633 C11.3430417,5.65618711 11.560184,5.43807541 11.8274202,5.43807541 Z" id="Shape" fill="#FFFFFF"></path>
                <path d="M11.8274202,20.0921861 C12.094708,20.0921861 12.3117987,20.3102978 12.3117987,20.578727 C12.3117987,20.8472081 12.0946564,21.065268 11.8274202,21.065268 C11.560184,21.065268 11.3430417,20.8471563 11.3430417,20.578727 C11.3430417,20.3102978 11.560184,20.0921861 11.8274202,20.0921861 Z" id="Shape" fill="#FFFFFF"></path>
                <path d="M3.6211021,5.43807541 C3.88838989,5.43807541 4.10548061,5.65618711 4.10548061,5.92461633 C4.10548061,6.19304555 3.8883383,6.41115724 3.6211021,6.41115724 C3.3538659,6.41115724 3.13672359,6.19304555 3.13672359,5.92461633 C3.13672359,5.65618711 3.3538659,5.43807541 3.6211021,5.43807541 Z" id="Shape" fill="#FFFFFF"></path>
                <path d="M3.6211021,20.0921861 C3.88838989,20.0921861 4.10548061,20.3102978 4.10548061,20.578727 C4.10548061,20.8472081 3.8883383,21.065268 3.6211021,21.065268 C3.3538659,21.065268 3.13672359,20.8471563 3.13672359,20.578727 C3.13672359,20.3102978 3.3538659,20.0921861 3.6211021,20.0921861 Z" id="Shape" fill="#FFFFFF"></path>
            </g>
        </g>
    </g>
</svg>