<svg xmlns="http://www.w3.org/2000/svg" width="10" height="10" viewBox="0 0 10 10">
    <path fill="#9B9B9B" fill-rule="nonzero" d="M9.151.45c-.599-.6-1.57-.6-2.17 0L.9 6.53a.34.34 0 0 0-.088.15l-.8 2.888a.34.34 0 0 0 .42.42l2.887-.8a.34.34 0 0 0 .15-.088L9.551 3.02c.599-.6.599-1.57 0-2.17l-.4-.4zM1.643 6.751L6.62 1.775 8.226 3.38 3.248 8.358 1.643 6.752zm-.321.644l1.282 1.282L.83 9.17l.492-1.774zm7.747-4.86l-.361.362-1.606-1.605.362-.362a.852.852 0 0 1 1.205 0l.4.4a.853.853 0 0 1 0 1.206z"/>
</svg>
