<?xml version="1.0" encoding="utf-8"?>
<!-- Generator: Adobe Illustrator 21.0.0, SVG Export Plug-In . SVG Version: 6.00 Build 0)  -->
<svg version="1.1" id="Layer_1" xmlns="http://www.w3.org/2000/svg" xmlns:xlink="http://www.w3.org/1999/xlink" x="0px" y="0px"
	 viewBox="0 0 304 98.1" style="enable-background:new 0 0 304 98.1;" xml:space="preserve">
<style type="text/css">
	.st0{fill:#282828;}
	.st1{fill:#009BFF;}
</style>
<g>
	<g>
		<path class="st0" d="M206.8,17.4c-6.2,0-10.8,2.1-13.8,6.2s-4.6,9-4.6,14.6c0,5.7,1.5,10.6,4.6,14.7c3,4.1,7.6,6.1,13.8,6.1
			c6.2,0,10.8-2,13.8-6.1c3-4.1,4.6-8.9,4.6-14.7c0-5.6-1.5-10.5-4.6-14.6C217.6,19.5,213,17.4,206.8,17.4z M213.1,47.3
			c-1.5,2.1-3.6,3.2-6.3,3.2c-2.8,0-4.9-1.1-6.4-3.2c-1.5-2.1-2.2-5.1-2.2-9c0-3.9,0.7-6.9,2.2-9c1.5-2.1,3.6-3.2,6.4-3.2
			c2.7,0,4.9,1.1,6.3,3.2c1.5,2.1,2.2,5.1,2.2,9C215.3,42.1,214.6,45.2,213.1,47.3z"/>
		<path class="st0" d="M172.5,24.9c-1.2-1.7-2.3-2.9-3.6-3.8c-2.2-1.6-5-2.3-8.4-2.3c-5.3,0-9.6,1.8-12.9,5.4c-3.3,3.6-5,8.9-5,15.8
			c0,6.6,1.7,11.5,5.1,14.9c3.4,3.4,7.6,5.1,12.5,5.1c3.4,0,6.3-0.9,8.8-2.6c1.3-1,2.6-2.3,3.8-4v5.8h10.5v-57h-10.9V24.9z
			 M171.7,45.8c-1.5,3.5-4.3,5.3-8.3,5.3c-3.3,0-5.8-1.2-7.2-3.5c-1.5-2.3-2.2-5-2.2-8c0-3.7,0.8-6.6,2.4-8.8c1.6-2.2,4-3.3,7.1-3.3
			c2.1,0,4,0.5,5.5,1.6c2.6,1.9,3.9,5.1,3.9,9.6C172.9,41.5,172.5,43.9,171.7,45.8z"/>
		<path class="st0" d="M253.4,16.9c-3.4,0-6.3,0.9-8.8,2.6c-1.3,1-2.6,2.3-3.8,4v-5.8h-10.5v56.7h10.9V52.1c1.2,1.7,2.3,2.9,3.6,3.8
			c2.2,1.6,5,2.3,8.4,2.3c5.3,0,9.6-1.8,12.9-5.4c3.3-3.6,5-8.9,5-15.8c0-6.6-1.7-11.5-5.1-14.9C262.5,18.6,258.3,16.9,253.4,16.9z
			 M257.3,46.2c-1.6,2.2-4,3.3-7.1,3.3c-2.1,0-4-0.5-5.5-1.6c-2.6-1.9-3.9-5.1-3.9-9.6c0-2.9,0.4-5.3,1.2-7.1
			c1.5-3.5,4.3-5.3,8.3-5.3c3.3,0,5.8,1.2,7.2,3.5c1.5,2.3,2.2,5,2.2,8C259.7,41.1,258.9,44,257.3,46.2z"/>
		<path class="st0" d="M295,45.8c0,0,0,4.8-5.9,4.8c-0.5,0-1,0-1.4-0.1V19.6h6.3v-7.3h-6.3V2.2h-10.3v10.1h-6.3v7.3h6.3v26.1v1.9
			v2.1c0,4.8,2.3,10,9.9,10.2c8.5,0.2,10.8-4.6,10.8-4.6L295,45.8z"/>
	</g>
	<g>
		<path class="st1" d="M70.4,25c-1.7-2.6-3.8-4.6-6.4-5.8c-2.6-1.2-5.5-1.8-8.7-1.8c-5.4,0-9.8,1.8-13.3,5.4
			c-3.4,3.6-5.1,8.8-5.1,15.6c0,7.2,1.9,12.5,5.7,15.7c3.8,3.2,8.1,4.8,13.1,4.8c6,0,10.6-1.9,13.9-5.7c2.1-2.4,3.3-4.8,3.6-7.1
			h-9.9c-0.6,1.2-1.2,2-2,2.7c-1.4,1.2-3.2,1.8-5.4,1.8c-2.1,0-3.9-0.5-5.3-1.5c-2.4-1.6-3.7-4.3-3.9-8.3h27c0-3.4-0.1-6-0.3-7.8
			C72.9,30.1,71.9,27.4,70.4,25z M46.9,34.1c0.4-2.6,1.2-4.6,2.6-6.1c1.4-1.5,3.3-2.2,5.8-2.2c2.3,0,4.2,0.7,5.7,2.1
			c1.5,1.4,2.4,3.5,2.6,6.2H46.9z"/>
		<path class="st1" d="M106.4,20.1c-3.4-1.7-7.2-2.6-11.5-2.6c-6.6,0-11.3,1.7-14.1,5.2c-1.7,2.2-2.7,5-2.9,8.5h9.9
			c0.2-1.5,0.7-2.7,1.5-3.6c1-1.2,2.8-1.8,5.2-1.8c2.2,0,3.9,0.3,5,0.9c1.1,0.6,1.7,1.7,1.7,3.3c0,1.3-0.7,2.3-2.2,2.9
			c-0.8,0.4-2.2,0.7-4.1,0.9l-3.5,0.4c-4,0.5-7,1.3-9.1,2.5c-3.8,2.2-5.6,5.7-5.6,10.5c0,3.7,1.2,6.6,3.5,8.6c2.3,2,5.3,3,8.9,3
			c2.8,0,5.3-0.6,7.5-1.9c1.9-1.1,4.3-2.4,5.7-3.9c0,1.2,0,5.8,0,5.8h9.2l0-11.2v-18C111.5,25,109.8,21.8,106.4,20.1z M101.2,42.5
			c-0.1,3.4-1.1,5.8-2.9,7.1c-1.9,1.3-4,1.9-6.2,1.9c-1.4,0-2.6-0.4-3.6-1.2c-1-0.8-1.5-2.1-1.5-3.8c0-2,0.8-3.4,2.4-4.4
			c1-0.6,2.5-1,4.7-1.4l2.3-0.4c1.2-0.2,2.1-0.5,2.8-0.7c0.7-0.3,1.3-0.6,2-1V42.5z"/>
		<path class="st1" d="M26.6,17.4c-5.2,0.2-10.3,5.2-10.3,5.2v-4.9H6v41.3h10.3V32.9c0,0,5.2-5.2,10.3-5.2s5.2,5.2,5.2,5.2L37,22.6
			C37,22.6,35.2,17.1,26.6,17.4z"/>
		<path class="st1" d="M125.2,1.9l-4.6,65.3c1.3-0.4,2.6-0.6,4-0.6c2.3,0,4.4,0.6,6.3,1.6l4.6-65.5L125.2,1.9z"/>
	</g>
	<g>
		<path class="st0" d="M50.8,75.1c1.3,1.4,2,3.5,2,6.2c0,2.9-0.7,5.1-2,6.6c-1.3,1.5-3,2.3-5,2.3c-1.3,0-2.4-0.3-3.3-1
			c-0.5-0.4-0.9-0.9-1.4-1.6v8.5h-4.2V73.3H41v2.4c0.5-0.7,1-1.3,1.5-1.7c1-0.7,2.1-1.1,3.4-1.1C47.9,73,49.5,73.7,50.8,75.1z
			 M47.5,78.2c-0.6-1-1.5-1.5-2.8-1.5c-1.6,0-2.6,0.7-3.2,2.2c-0.3,0.8-0.5,1.8-0.5,3c0,1.9,0.5,3.2,1.5,4c0.6,0.5,1.3,0.7,2.2,0.7
			c1.2,0,2.1-0.5,2.8-1.4c0.6-0.9,0.9-2.1,0.9-3.7C48.4,80.3,48.1,79.1,47.5,78.2z"/>
		<path class="st0" d="M62.9,79.8c0.8-0.1,1.4-0.2,1.7-0.4c0.6-0.3,0.9-0.7,0.9-1.2c0-0.7-0.2-1.1-0.7-1.4c-0.5-0.3-1.2-0.4-2.1-0.4
			c-1,0-1.7,0.3-2.2,0.8c-0.3,0.4-0.5,0.9-0.6,1.5h-4.1c0.1-1.4,0.5-2.6,1.2-3.5c1.1-1.4,3.1-2.2,5.8-2.2c1.8,0,3.4,0.4,4.8,1.1
			c1.4,0.7,2.1,2.1,2.1,4v7.5c0,0.5,0,1.2,0,1.9c0,0.6,0.1,0.9,0.3,1.1c0.1,0.2,0.3,0.4,0.6,0.5v0.6h-4.7c-0.1-0.3-0.2-0.6-0.3-0.9
			s-0.1-0.6-0.1-1c-0.6,0.6-1.3,1.2-2.1,1.6c-0.9,0.5-2,0.8-3.1,0.8c-1.5,0-2.7-0.4-3.7-1.3c-1-0.8-1.5-2-1.5-3.6
			c0-2,0.8-3.5,2.3-4.4c0.9-0.5,2.1-0.8,3.8-1.1L62.9,79.8z M65.5,81.7c-0.3,0.2-0.6,0.3-0.8,0.4s-0.7,0.2-1.1,0.3l-1,0.2
			c-0.9,0.2-1.6,0.4-2,0.6c-0.7,0.4-1,1-1,1.8c0,0.7,0.2,1.3,0.6,1.6c0.4,0.3,0.9,0.5,1.5,0.5c0.9,0,1.8-0.3,2.6-0.8
			c0.8-0.5,1.2-1.5,1.2-3V81.7z"/>
		<path class="st0" d="M83.3,73c0.1,0,0.2,0,0.4,0v4.4c-0.3,0-0.5,0-0.7-0.1c-0.2,0-0.4,0-0.5,0c-1.7,0-2.9,0.6-3.5,1.7
			c-0.3,0.6-0.5,1.6-0.5,2.9v7.8h-4.3V73.3h4.1v2.9c0.7-1.1,1.2-1.8,1.7-2.2c0.8-0.7,1.8-1,3.1-1C83.1,73,83.2,73,83.3,73z"/>
		<path class="st0" d="M85.1,76.5v-3h2.3v-4.6h4.2v4.6h2.7v3h-2.7v8.6c0,0.7,0.1,1.1,0.3,1.3s0.7,0.2,1.6,0.2c0.1,0,0.3,0,0.4,0
			c0.1,0,0.3,0,0.4,0v3.2l-2,0.1c-2,0.1-3.4-0.3-4.1-1.1c-0.5-0.5-0.7-1.2-0.7-2.3V76.5H85.1z"/>
		<path class="st0" d="M110.8,74.3c1.1,0.9,1.6,2.4,1.6,4.4v11H108v-10c0-0.9-0.1-1.5-0.3-2c-0.4-0.8-1.2-1.3-2.4-1.3
			c-1.4,0-2.4,0.6-3,1.8c-0.3,0.7-0.4,1.5-0.4,2.5v8.9h-4.3V73.4h4.1v2.4c0.5-0.8,1.1-1.4,1.6-1.8c0.9-0.7,2-1,3.3-1
			C108.3,73,109.7,73.4,110.8,74.3z"/>
		<path class="st1" d="M127.6,73.7c1.1,0.5,2.1,1.3,2.8,2.4c0.7,1,1.1,2.1,1.3,3.4c0.1,0.8,0.2,1.8,0.1,3.2H120
			c0.1,1.6,0.6,2.8,1.7,3.5c0.7,0.4,1.4,0.6,2.4,0.6c1,0,1.8-0.3,2.4-0.8c0.3-0.3,0.6-0.6,0.9-1.1h4.4c-0.1,1-0.6,2-1.6,3
			c-1.5,1.6-3.5,2.4-6.2,2.4c-2.2,0-4.1-0.7-5.8-2c-1.7-1.3-2.5-3.5-2.5-6.6c0-2.8,0.8-5,2.3-6.5c1.5-1.5,3.5-2.3,5.9-2.3
			C125.2,72.9,126.5,73.2,127.6,73.7z M121.2,77.4c-0.6,0.6-1,1.5-1.1,2.5h7.4c-0.1-1.1-0.5-2-1.1-2.6c-0.7-0.6-1.5-0.9-2.5-0.9
			C122.7,76.4,121.9,76.7,121.2,77.4z"/>
		<path class="st0" d="M143.8,73c0.1,0,0.2,0,0.4,0v4.4c-0.3,0-0.5,0-0.7-0.1c-0.2,0-0.4,0-0.5,0c-1.7,0-2.9,0.6-3.5,1.7
			c-0.3,0.6-0.5,1.6-0.5,2.9v7.8h-4.3V73.3h4.1v2.9c0.7-1.1,1.2-1.8,1.7-2.2c0.8-0.7,1.8-1,3.1-1C143.7,73,143.7,73,143.8,73z"/>
	</g>
</g>
</svg>
